<svg width="1440" height="270" viewBox="0 0 1440 270" fill="none" xmlns="http://www.w3.org/2000/svg">
<rect width="1440" height="270" fill="#FAF3EA"/>
<path d="M102.355 108.516C101.074 108.516 99.8741 108.861 98.839 109.462V106.758C98.839 105.787 98.0519 105 97.0812 105H68.9562C67.9853 105 67.1982 105.787 67.1982 106.758V109.483C66.1549 108.869 64.941 108.516 63.6454 108.516C59.7684 108.516 56.6142 111.67 56.6142 115.547C56.6142 118.504 57.4905 121.361 59.1484 123.81C61.9707 127.979 65.4511 129.061 68.331 130.213C69.9915 134.348 73.3495 137.625 77.5384 139.177L76.2422 147.422H75.9874C73.0796 147.422 70.714 149.788 70.714 152.695V161.484H68.9562C67.9854 161.484 67.1983 162.271 67.1983 163.242C67.1983 164.213 67.9854 165 68.9562 165H97.0812C98.0519 165 98.839 164.213 98.839 163.242C98.839 162.271 98.0519 161.484 97.0812 161.484H95.3233V152.695C95.3233 149.788 92.9577 147.422 90.0499 147.422H89.7951L88.499 139.177C92.694 137.623 96.0558 134.339 97.7138 130.195C100.434 129.107 104 128.022 106.852 123.81C108.51 121.361 109.386 118.504 109.386 115.547C109.386 111.67 106.232 108.516 102.355 108.516ZM67.1852 125.968C62.8992 124.254 60.1298 120.163 60.1298 115.547C60.1298 113.608 61.7069 112.031 63.6454 112.031C65.584 112.031 67.1611 113.608 67.1611 115.547C67.1611 115.671 67.1741 115.791 67.1983 115.907V124.336C67.1983 124.901 67.2287 125.459 67.2868 126.009L67.1852 125.968ZM91.8077 161.484H74.2296V157.969H91.8077V161.484ZM90.0499 150.938C91.0192 150.938 91.8077 151.726 91.8077 152.695V154.453H74.2296V152.695C74.2296 151.726 75.0181 150.938 75.9874 150.938C76.9411 150.938 87.8134 150.938 90.0499 150.938ZM79.8009 147.422L80.9641 140.023C81.6368 140.111 82.3224 140.156 83.0187 140.156C83.7149 140.156 84.4005 140.111 85.0732 140.023L86.2364 147.422H79.8009ZM95.3233 124.336C95.3233 131.121 89.8035 136.641 83.0187 136.641C76.2338 136.641 70.714 131.121 70.714 124.336V115.547H95.3233V124.336ZM95.3233 112.031H70.714V108.516H95.3233V112.031ZM98.8147 125.968L98.7522 125.993C98.8092 125.448 98.8388 124.896 98.8388 124.336V115.547C98.839 113.608 100.416 112.031 102.355 112.031C104.293 112.031 105.87 113.608 105.87 115.547C105.87 120.163 103.101 124.254 98.8147 125.968Z" fill="#242424"/>
<path d="M139.2 110.55V128H135.7V120.575H128.225V128H124.725V110.55H128.225V117.725H135.7V110.55H139.2ZM144.42 112.5C143.803 112.5 143.287 112.308 142.87 111.925C142.47 111.525 142.27 111.033 142.27 110.45C142.27 109.867 142.47 109.383 142.87 109C143.287 108.6 143.803 108.4 144.42 108.4C145.037 108.4 145.545 108.6 145.945 109C146.362 109.383 146.57 109.867 146.57 110.45C146.57 111.033 146.362 111.525 145.945 111.925C145.545 112.308 145.037 112.5 144.42 112.5ZM146.145 114.15V128H142.645V114.15H146.145ZM155.028 113.925C156.061 113.925 156.97 114.133 157.753 114.55C158.536 114.95 159.153 115.475 159.603 116.125V114.15H163.128V128.1C163.128 129.383 162.87 130.525 162.353 131.525C161.836 132.542 161.061 133.342 160.028 133.925C158.995 134.525 157.745 134.825 156.278 134.825C154.311 134.825 152.695 134.367 151.428 133.45C150.178 132.533 149.47 131.283 149.303 129.7H152.778C152.961 130.333 153.353 130.833 153.953 131.2C154.57 131.583 155.311 131.775 156.178 131.775C157.195 131.775 158.02 131.467 158.653 130.85C159.286 130.25 159.603 129.333 159.603 128.1V125.95C159.153 126.6 158.528 127.142 157.728 127.575C156.945 128.008 156.045 128.225 155.028 128.225C153.861 128.225 152.795 127.925 151.828 127.325C150.861 126.725 150.095 125.883 149.528 124.8C148.978 123.7 148.703 122.442 148.703 121.025C148.703 119.625 148.978 118.383 149.528 117.3C150.095 116.217 150.853 115.383 151.803 114.8C152.77 114.217 153.845 113.925 155.028 113.925ZM159.603 121.075C159.603 120.225 159.436 119.5 159.103 118.9C158.77 118.283 158.32 117.817 157.753 117.5C157.186 117.167 156.578 117 155.928 117C155.278 117 154.678 117.158 154.128 117.475C153.578 117.792 153.128 118.258 152.778 118.875C152.445 119.475 152.278 120.192 152.278 121.025C152.278 121.858 152.445 122.592 152.778 123.225C153.128 123.842 153.578 124.317 154.128 124.65C154.695 124.983 155.295 125.15 155.928 125.15C156.578 125.15 157.186 124.992 157.753 124.675C158.32 124.342 158.77 123.875 159.103 123.275C159.436 122.658 159.603 121.925 159.603 121.075ZM174.346 113.95C175.396 113.95 176.33 114.183 177.146 114.65C177.963 115.1 178.596 115.775 179.046 116.675C179.513 117.558 179.746 118.625 179.746 119.875V128H176.246V120.35C176.246 119.25 175.971 118.408 175.421 117.825C174.871 117.225 174.121 116.925 173.171 116.925C172.205 116.925 171.438 117.225 170.871 117.825C170.321 118.408 170.046 119.25 170.046 120.35V128H166.546V109.5H170.046V115.875C170.496 115.275 171.096 114.808 171.846 114.475C172.596 114.125 173.43 113.95 174.346 113.95ZM202.032 131.075L199.382 127.9C198.648 128.083 197.898 128.175 197.132 128.175C195.498 128.175 193.998 127.792 192.632 127.025C191.265 126.258 190.182 125.2 189.382 123.85C188.582 122.483 188.182 120.942 188.182 119.225C188.182 117.525 188.582 116 189.382 114.65C190.182 113.283 191.265 112.217 192.632 111.45C193.998 110.683 195.498 110.3 197.132 110.3C198.782 110.3 200.282 110.683 201.632 111.45C202.998 112.217 204.073 113.283 204.857 114.65C205.657 116 206.057 117.525 206.057 119.225C206.057 120.775 205.723 122.192 205.057 123.475C204.407 124.742 203.515 125.775 202.382 126.575L206.382 131.075H202.032ZM191.782 119.225C191.782 120.392 192.007 121.417 192.457 122.3C192.907 123.183 193.532 123.867 194.332 124.35C195.148 124.817 196.082 125.05 197.132 125.05C198.182 125.05 199.107 124.817 199.907 124.35C200.707 123.867 201.332 123.183 201.782 122.3C202.232 121.417 202.457 120.392 202.457 119.225C202.457 118.058 202.232 117.042 201.782 116.175C201.332 115.292 200.707 114.617 199.907 114.15C199.107 113.683 198.182 113.45 197.132 113.45C196.082 113.45 195.148 113.683 194.332 114.15C193.532 114.617 192.907 115.292 192.457 116.175C192.007 117.042 191.782 118.058 191.782 119.225ZM221.784 114.15V128H218.259V126.25C217.809 126.85 217.218 127.325 216.484 127.675C215.768 128.008 214.984 128.175 214.134 128.175C213.051 128.175 212.093 127.95 211.259 127.5C210.426 127.033 209.768 126.358 209.284 125.475C208.818 124.575 208.584 123.508 208.584 122.275V114.15H212.084V121.775C212.084 122.875 212.359 123.725 212.909 124.325C213.459 124.908 214.209 125.2 215.159 125.2C216.126 125.2 216.884 124.908 217.434 124.325C217.984 123.725 218.259 122.875 218.259 121.775V114.15H221.784ZM224.338 121.025C224.338 119.625 224.613 118.383 225.163 117.3C225.729 116.217 226.488 115.383 227.438 114.8C228.404 114.217 229.479 113.925 230.663 113.925C231.696 113.925 232.596 114.133 233.363 114.55C234.146 114.967 234.771 115.492 235.238 116.125V114.15H238.763V128H235.238V125.975C234.788 126.625 234.163 127.167 233.363 127.6C232.579 128.017 231.671 128.225 230.638 128.225C229.471 128.225 228.404 127.925 227.438 127.325C226.488 126.725 225.729 125.883 225.163 124.8C224.613 123.7 224.338 122.442 224.338 121.025ZM235.238 121.075C235.238 120.225 235.071 119.5 234.738 118.9C234.404 118.283 233.954 117.817 233.388 117.5C232.821 117.167 232.213 117 231.563 117C230.913 117 230.313 117.158 229.763 117.475C229.213 117.792 228.763 118.258 228.413 118.875C228.079 119.475 227.913 120.192 227.913 121.025C227.913 121.858 228.079 122.592 228.413 123.225C228.763 123.842 229.213 124.317 229.763 124.65C230.329 124.983 230.929 125.15 231.563 125.15C232.213 125.15 232.821 124.992 233.388 124.675C233.954 124.342 234.404 123.875 234.738 123.275C235.071 122.658 235.238 121.925 235.238 121.075ZM245.681 109.5V128H242.181V109.5H245.681ZM250.914 112.5C250.297 112.5 249.781 112.308 249.364 111.925C248.964 111.525 248.764 111.033 248.764 110.45C248.764 109.867 248.964 109.383 249.364 109C249.781 108.6 250.297 108.4 250.914 108.4C251.531 108.4 252.039 108.6 252.439 109C252.856 109.383 253.064 109.867 253.064 110.45C253.064 111.033 252.856 111.525 252.439 111.925C252.039 112.308 251.531 112.5 250.914 112.5ZM252.639 114.15V128H249.139V114.15H252.639ZM260.172 117.025V123.725C260.172 124.192 260.28 124.533 260.497 124.75C260.73 124.95 261.114 125.05 261.647 125.05H263.272V128H261.072C258.122 128 256.647 126.567 256.647 123.7V117.025H254.997V114.15H256.647V110.725H260.172V114.15H263.272V117.025H260.172ZM279.039 114.15L270.464 134.55H266.739L269.739 127.65L264.189 114.15H268.114L271.689 123.825L275.314 114.15H279.039Z" fill="#242424"/>
<path d="M123.74 156.48C123.74 155.347 123.967 154.353 124.42 153.5C124.887 152.633 125.527 151.967 126.34 151.5C127.153 151.033 128.087 150.8 129.14 150.8C130.473 150.8 131.573 151.12 132.44 151.76C133.32 152.387 133.913 153.287 134.22 154.46H131.76C131.56 153.913 131.24 153.487 130.8 153.18C130.36 152.873 129.807 152.72 129.14 152.72C128.207 152.72 127.46 153.053 126.9 153.72C126.353 154.373 126.08 155.293 126.08 156.48C126.08 157.667 126.353 158.593 126.9 159.26C127.46 159.927 128.207 160.26 129.14 160.26C130.46 160.26 131.333 159.68 131.76 158.52H134.22C133.9 159.64 133.3 160.533 132.42 161.2C131.54 161.853 130.447 162.18 129.14 162.18C128.087 162.18 127.153 161.947 126.34 161.48C125.527 161 124.887 160.333 124.42 159.48C123.967 158.613 123.74 157.613 123.74 156.48ZM138.772 152.58C139.106 152.02 139.546 151.587 140.092 151.28C140.652 150.96 141.312 150.8 142.072 150.8V153.16H141.492C140.599 153.16 139.919 153.387 139.452 153.84C138.999 154.293 138.772 155.08 138.772 156.2V162H136.492V150.98H138.772V152.58ZM143.408 156.44C143.408 155.333 143.635 154.353 144.088 153.5C144.555 152.647 145.181 151.987 145.968 151.52C146.768 151.04 147.648 150.8 148.608 150.8C149.475 150.8 150.228 150.973 150.868 151.32C151.521 151.653 152.041 152.073 152.428 152.58V150.98H154.728V162H152.428V160.36C152.041 160.88 151.515 161.313 150.848 161.66C150.181 162.007 149.421 162.18 148.568 162.18C147.621 162.18 146.755 161.94 145.968 161.46C145.181 160.967 144.555 160.287 144.088 159.42C143.635 158.54 143.408 157.547 143.408 156.44ZM152.428 156.48C152.428 155.72 152.268 155.06 151.948 154.5C151.641 153.94 151.235 153.513 150.728 153.22C150.221 152.927 149.675 152.78 149.088 152.78C148.501 152.78 147.955 152.927 147.448 153.22C146.941 153.5 146.528 153.92 146.208 154.48C145.901 155.027 145.748 155.68 145.748 156.44C145.748 157.2 145.901 157.867 146.208 158.44C146.528 159.013 146.941 159.453 147.448 159.76C147.968 160.053 148.515 160.2 149.088 160.2C149.675 160.2 150.221 160.053 150.728 159.76C151.235 159.467 151.641 159.04 151.948 158.48C152.268 157.907 152.428 157.24 152.428 156.48ZM162.343 152.84H160.303V162H158.003V152.84H156.703V150.98H158.003V150.2C158.003 148.933 158.336 148.013 159.003 147.44C159.683 146.853 160.743 146.56 162.183 146.56V148.46C161.489 148.46 161.003 148.593 160.723 148.86C160.443 149.113 160.303 149.56 160.303 150.2V150.98H162.343V152.84ZM167.023 152.84V158.94C167.023 159.353 167.117 159.653 167.303 159.84C167.503 160.013 167.837 160.1 168.303 160.1H169.703V162H167.903C166.877 162 166.09 161.76 165.543 161.28C164.997 160.8 164.723 160.02 164.723 158.94V152.84H163.423V150.98H164.723V148.24H167.023V150.98H169.703V152.84H167.023ZM181.905 156.22C181.905 156.633 181.878 157.007 181.825 157.34H173.405C173.471 158.22 173.798 158.927 174.385 159.46C174.971 159.993 175.691 160.26 176.545 160.26C177.771 160.26 178.638 159.747 179.145 158.72H181.605C181.271 159.733 180.665 160.567 179.785 161.22C178.918 161.86 177.838 162.18 176.545 162.18C175.491 162.18 174.545 161.947 173.705 161.48C172.878 161 172.225 160.333 171.745 159.48C171.278 158.613 171.045 157.613 171.045 156.48C171.045 155.347 171.271 154.353 171.725 153.5C172.191 152.633 172.838 151.967 173.665 151.5C174.505 151.033 175.465 150.8 176.545 150.8C177.585 150.8 178.511 151.027 179.325 151.48C180.138 151.933 180.771 152.573 181.225 153.4C181.678 154.213 181.905 155.153 181.905 156.22ZM179.525 155.5C179.511 154.66 179.211 153.987 178.625 153.48C178.038 152.973 177.311 152.72 176.445 152.72C175.658 152.72 174.985 152.973 174.425 153.48C173.865 153.973 173.531 154.647 173.425 155.5H179.525ZM183.388 156.44C183.388 155.333 183.615 154.353 184.068 153.5C184.535 152.647 185.162 151.987 185.948 151.52C186.748 151.04 187.635 150.8 188.608 150.8C189.328 150.8 190.035 150.96 190.728 151.28C191.435 151.587 191.995 152 192.408 152.52V147.2H194.708V162H192.408V160.34C192.035 160.873 191.515 161.313 190.848 161.66C190.195 162.007 189.442 162.18 188.588 162.18C187.628 162.18 186.748 161.94 185.948 161.46C185.162 160.967 184.535 160.287 184.068 159.42C183.615 158.54 183.388 157.547 183.388 156.44ZM192.408 156.48C192.408 155.72 192.248 155.06 191.928 154.5C191.622 153.94 191.215 153.513 190.708 153.22C190.202 152.927 189.655 152.78 189.068 152.78C188.482 152.78 187.935 152.927 187.428 153.22C186.922 153.5 186.508 153.92 186.188 154.48C185.882 155.027 185.728 155.68 185.728 156.44C185.728 157.2 185.882 157.867 186.188 158.44C186.508 159.013 186.922 159.453 187.428 159.76C187.948 160.053 188.495 160.2 189.068 160.2C189.655 160.2 190.202 160.053 190.708 159.76C191.215 159.467 191.622 159.04 191.928 158.48C192.248 157.907 192.408 157.24 192.408 156.48ZM207.518 152.84H205.478V162H203.178V152.84H201.878V150.98H203.178V150.2C203.178 148.933 203.512 148.013 204.178 147.44C204.858 146.853 205.918 146.56 207.358 146.56V148.46C206.665 148.46 206.178 148.593 205.898 148.86C205.618 149.113 205.478 149.56 205.478 150.2V150.98H207.518V152.84ZM211.819 152.58C212.152 152.02 212.592 151.587 213.139 151.28C213.699 150.96 214.359 150.8 215.119 150.8V153.16H214.539C213.646 153.16 212.966 153.387 212.499 153.84C212.046 154.293 211.819 155.08 211.819 156.2V162H209.539V150.98H211.819V152.58ZM221.995 162.18C220.955 162.18 220.015 161.947 219.175 161.48C218.335 161 217.675 160.333 217.195 159.48C216.715 158.613 216.475 157.613 216.475 156.48C216.475 155.36 216.722 154.367 217.215 153.5C217.708 152.633 218.382 151.967 219.235 151.5C220.088 151.033 221.042 150.8 222.095 150.8C223.148 150.8 224.102 151.033 224.955 151.5C225.808 151.967 226.482 152.633 226.975 153.5C227.468 154.367 227.715 155.36 227.715 156.48C227.715 157.6 227.462 158.593 226.955 159.46C226.448 160.327 225.755 161 224.875 161.48C224.008 161.947 223.048 162.18 221.995 162.18ZM221.995 160.2C222.582 160.2 223.128 160.06 223.635 159.78C224.155 159.5 224.575 159.08 224.895 158.52C225.215 157.96 225.375 157.28 225.375 156.48C225.375 155.68 225.222 155.007 224.915 154.46C224.608 153.9 224.202 153.48 223.695 153.2C223.188 152.92 222.642 152.78 222.055 152.78C221.468 152.78 220.922 152.92 220.415 153.2C219.922 153.48 219.528 153.9 219.235 154.46C218.942 155.007 218.795 155.68 218.795 156.48C218.795 157.667 219.095 158.587 219.695 159.24C220.308 159.88 221.075 160.2 221.995 160.2ZM243.309 150.8C244.175 150.8 244.949 150.98 245.629 151.34C246.322 151.7 246.862 152.233 247.249 152.94C247.649 153.647 247.849 154.5 247.849 155.5V162H245.589V155.84C245.589 154.853 245.342 154.1 244.849 153.58C244.355 153.047 243.682 152.78 242.829 152.78C241.975 152.78 241.295 153.047 240.789 153.58C240.295 154.1 240.049 154.853 240.049 155.84V162H237.789V155.84C237.789 154.853 237.542 154.1 237.049 153.58C236.555 153.047 235.882 152.78 235.029 152.78C234.175 152.78 233.495 153.047 232.989 153.58C232.495 154.1 232.249 154.853 232.249 155.84V162H229.969V150.98H232.249V152.24C232.622 151.787 233.095 151.433 233.669 151.18C234.242 150.927 234.855 150.8 235.509 150.8C236.389 150.8 237.175 150.987 237.869 151.36C238.562 151.733 239.095 152.273 239.469 152.98C239.802 152.313 240.322 151.787 241.029 151.4C241.735 151 242.495 150.8 243.309 150.8ZM258.605 152.84V158.94C258.605 159.353 258.699 159.653 258.885 159.84C259.085 160.013 259.419 160.1 259.885 160.1H261.285V162H259.485C258.459 162 257.672 161.76 257.125 161.28C256.579 160.8 256.305 160.02 256.305 158.94V152.84H255.005V150.98H256.305V148.24H258.605V150.98H261.285V152.84H258.605ZM268.167 162.18C267.127 162.18 266.187 161.947 265.347 161.48C264.507 161 263.847 160.333 263.367 159.48C262.887 158.613 262.647 157.613 262.647 156.48C262.647 155.36 262.893 154.367 263.387 153.5C263.88 152.633 264.553 151.967 265.407 151.5C266.26 151.033 267.213 150.8 268.267 150.8C269.32 150.8 270.273 151.033 271.127 151.5C271.98 151.967 272.653 152.633 273.147 153.5C273.64 154.367 273.887 155.36 273.887 156.48C273.887 157.6 273.633 158.593 273.127 159.46C272.62 160.327 271.927 161 271.047 161.48C270.18 161.947 269.22 162.18 268.167 162.18ZM268.167 160.2C268.753 160.2 269.3 160.06 269.807 159.78C270.327 159.5 270.747 159.08 271.067 158.52C271.387 157.96 271.547 157.28 271.547 156.48C271.547 155.68 271.393 155.007 271.087 154.46C270.78 153.9 270.373 153.48 269.867 153.2C269.36 152.92 268.813 152.78 268.227 152.78C267.64 152.78 267.093 152.92 266.587 153.2C266.093 153.48 265.7 153.9 265.407 154.46C265.113 155.007 264.967 155.68 264.967 156.48C264.967 157.667 265.267 158.587 265.867 159.24C266.48 159.88 267.247 160.2 268.167 160.2ZM278.421 152.6C278.807 152.093 279.334 151.667 280.001 151.32C280.667 150.973 281.421 150.8 282.261 150.8C283.221 150.8 284.094 151.04 284.881 151.52C285.681 151.987 286.307 152.647 286.761 153.5C287.214 154.353 287.441 155.333 287.441 156.44C287.441 157.547 287.214 158.54 286.761 159.42C286.307 160.287 285.681 160.967 284.881 161.46C284.094 161.94 283.221 162.18 282.261 162.18C281.421 162.18 280.674 162.013 280.021 161.68C279.367 161.333 278.834 160.907 278.421 160.4V167.24H276.141V150.98H278.421V152.6ZM285.121 156.44C285.121 155.68 284.961 155.027 284.641 154.48C284.334 153.92 283.921 153.5 283.401 153.22C282.894 152.927 282.347 152.78 281.761 152.78C281.187 152.78 280.641 152.927 280.121 153.22C279.614 153.513 279.201 153.94 278.881 154.5C278.574 155.06 278.421 155.72 278.421 156.48C278.421 157.24 278.574 157.907 278.881 158.48C279.201 159.04 279.614 159.467 280.121 159.76C280.641 160.053 281.187 160.2 281.761 160.2C282.347 160.2 282.894 160.053 283.401 159.76C283.921 159.453 284.334 159.013 284.641 158.44C284.961 157.867 285.121 157.2 285.121 156.44ZM308.231 150.8C309.097 150.8 309.871 150.98 310.551 151.34C311.244 151.7 311.784 152.233 312.171 152.94C312.571 153.647 312.771 154.5 312.771 155.5V162H310.511V155.84C310.511 154.853 310.264 154.1 309.771 153.58C309.277 153.047 308.604 152.78 307.751 152.78C306.897 152.78 306.217 153.047 305.711 153.58C305.217 154.1 304.971 154.853 304.971 155.84V162H302.711V155.84C302.711 154.853 302.464 154.1 301.971 153.58C301.477 153.047 300.804 152.78 299.951 152.78C299.097 152.78 298.417 153.047 297.911 153.58C297.417 154.1 297.171 154.853 297.171 155.84V162H294.891V150.98H297.171V152.24C297.544 151.787 298.017 151.433 298.591 151.18C299.164 150.927 299.777 150.8 300.431 150.8C301.311 150.8 302.097 150.987 302.791 151.36C303.484 151.733 304.017 152.273 304.391 152.98C304.724 152.313 305.244 151.787 305.951 151.4C306.657 151 307.417 150.8 308.231 150.8ZM314.912 156.44C314.912 155.333 315.139 154.353 315.592 153.5C316.059 152.647 316.685 151.987 317.472 151.52C318.272 151.04 319.152 150.8 320.112 150.8C320.979 150.8 321.732 150.973 322.372 151.32C323.025 151.653 323.545 152.073 323.932 152.58V150.98H326.232V162H323.932V160.36C323.545 160.88 323.019 161.313 322.352 161.66C321.685 162.007 320.925 162.18 320.072 162.18C319.125 162.18 318.259 161.94 317.472 161.46C316.685 160.967 316.059 160.287 315.592 159.42C315.139 158.54 314.912 157.547 314.912 156.44ZM323.932 156.48C323.932 155.72 323.772 155.06 323.452 154.5C323.145 153.94 322.739 153.513 322.232 153.22C321.725 152.927 321.179 152.78 320.592 152.78C320.005 152.78 319.459 152.927 318.952 153.22C318.445 153.5 318.032 153.92 317.712 154.48C317.405 155.027 317.252 155.68 317.252 156.44C317.252 157.2 317.405 157.867 317.712 158.44C318.032 159.013 318.445 159.453 318.952 159.76C319.472 160.053 320.019 160.2 320.592 160.2C321.179 160.2 321.725 160.053 322.232 159.76C322.739 159.467 323.145 159.04 323.452 158.48C323.772 157.907 323.932 157.24 323.932 156.48ZM331.887 152.84V158.94C331.887 159.353 331.98 159.653 332.167 159.84C332.367 160.013 332.7 160.1 333.167 160.1H334.567V162H332.767C331.74 162 330.953 161.76 330.407 161.28C329.86 160.8 329.587 160.02 329.587 158.94V152.84H328.287V150.98H329.587V148.24H331.887V150.98H334.567V152.84H331.887ZM346.768 156.22C346.768 156.633 346.741 157.007 346.688 157.34H338.268C338.335 158.22 338.661 158.927 339.248 159.46C339.835 159.993 340.555 160.26 341.408 160.26C342.635 160.26 343.501 159.747 344.008 158.72H346.468C346.135 159.733 345.528 160.567 344.648 161.22C343.781 161.86 342.701 162.18 341.408 162.18C340.355 162.18 339.408 161.947 338.568 161.48C337.741 161 337.088 160.333 336.608 159.48C336.141 158.613 335.908 157.613 335.908 156.48C335.908 155.347 336.135 154.353 336.588 153.5C337.055 152.633 337.701 151.967 338.528 151.5C339.368 151.033 340.328 150.8 341.408 150.8C342.448 150.8 343.375 151.027 344.188 151.48C345.001 151.933 345.635 152.573 346.088 153.4C346.541 154.213 346.768 155.153 346.768 156.22ZM344.388 155.5C344.375 154.66 344.075 153.987 343.488 153.48C342.901 152.973 342.175 152.72 341.308 152.72C340.521 152.72 339.848 152.973 339.288 153.48C338.728 153.973 338.395 154.647 338.288 155.5H344.388ZM351.292 152.58C351.625 152.02 352.065 151.587 352.612 151.28C353.172 150.96 353.832 150.8 354.592 150.8V153.16H354.012C353.118 153.16 352.438 153.387 351.972 153.84C351.518 154.293 351.292 155.08 351.292 156.2V162H349.012V150.98H351.292V152.58ZM357.848 149.52C357.434 149.52 357.088 149.38 356.808 149.1C356.528 148.82 356.388 148.473 356.388 148.06C356.388 147.647 356.528 147.3 356.808 147.02C357.088 146.74 357.434 146.6 357.848 146.6C358.248 146.6 358.588 146.74 358.868 147.02C359.148 147.3 359.288 147.647 359.288 148.06C359.288 148.473 359.148 148.82 358.868 149.1C358.588 149.38 358.248 149.52 357.848 149.52ZM358.968 150.98V162H356.688V150.98H358.968ZM361.201 156.44C361.201 155.333 361.428 154.353 361.881 153.5C362.348 152.647 362.974 151.987 363.761 151.52C364.561 151.04 365.441 150.8 366.401 150.8C367.268 150.8 368.021 150.973 368.661 151.32C369.314 151.653 369.834 152.073 370.221 152.58V150.98H372.521V162H370.221V160.36C369.834 160.88 369.308 161.313 368.641 161.66C367.974 162.007 367.214 162.18 366.361 162.18C365.414 162.18 364.548 161.94 363.761 161.46C362.974 160.967 362.348 160.287 361.881 159.42C361.428 158.54 361.201 157.547 361.201 156.44ZM370.221 156.48C370.221 155.72 370.061 155.06 369.741 154.5C369.434 153.94 369.028 153.513 368.521 153.22C368.014 152.927 367.468 152.78 366.881 152.78C366.294 152.78 365.748 152.927 365.241 153.22C364.734 153.5 364.321 153.92 364.001 154.48C363.694 155.027 363.541 155.68 363.541 156.44C363.541 157.2 363.694 157.867 364.001 158.44C364.321 159.013 364.734 159.453 365.241 159.76C365.761 160.053 366.308 160.2 366.881 160.2C367.468 160.2 368.014 160.053 368.521 159.76C369.028 159.467 369.434 159.04 369.741 158.48C370.061 157.907 370.221 157.24 370.221 156.48ZM377.796 147.2V162H375.516V147.2H377.796ZM384.789 162.18C383.922 162.18 383.142 162.027 382.449 161.72C381.769 161.4 381.229 160.973 380.829 160.44C380.429 159.893 380.216 159.287 380.189 158.62H382.549C382.589 159.087 382.809 159.48 383.209 159.8C383.622 160.107 384.136 160.26 384.749 160.26C385.389 160.26 385.882 160.14 386.229 159.9C386.589 159.647 386.769 159.327 386.769 158.94C386.769 158.527 386.569 158.22 386.169 158.02C385.782 157.82 385.162 157.6 384.309 157.36C383.482 157.133 382.809 156.913 382.289 156.7C381.769 156.487 381.316 156.16 380.929 155.72C380.556 155.28 380.369 154.7 380.369 153.98C380.369 153.393 380.542 152.86 380.889 152.38C381.236 151.887 381.729 151.5 382.369 151.22C383.022 150.94 383.769 150.8 384.609 150.8C385.862 150.8 386.869 151.12 387.629 151.76C388.402 152.387 388.816 153.247 388.869 154.34H386.589C386.549 153.847 386.349 153.453 385.989 153.16C385.629 152.867 385.142 152.72 384.529 152.72C383.929 152.72 383.469 152.833 383.149 153.06C382.829 153.287 382.669 153.587 382.669 153.96C382.669 154.253 382.776 154.5 382.989 154.7C383.202 154.9 383.462 155.06 383.769 155.18C384.076 155.287 384.529 155.427 385.129 155.6C385.929 155.813 386.582 156.033 387.089 156.26C387.609 156.473 388.056 156.793 388.429 157.22C388.802 157.647 388.996 158.213 389.009 158.92C389.009 159.547 388.836 160.107 388.489 160.6C388.142 161.093 387.649 161.48 387.009 161.76C386.382 162.04 385.642 162.18 384.789 162.18Z" fill="#898989"/>
<g clip-path="url(#clip0_0_1245)">
<path d="M502.119 126.261C501.328 123.81 501.665 120.13 499.607 117.288C497.533 114.424 493.926 113.61 491.889 112.121C489.874 110.647 487.999 107.439 484.609 106.333C481.314 105.258 477.945 106.717 475.333 106.717C472.722 106.717 469.353 105.257 466.058 106.333C462.668 107.439 460.792 110.647 458.778 112.12C456.743 113.608 453.133 114.424 451.06 117.288C449.004 120.127 449.338 123.815 448.547 126.261C447.795 128.589 445.333 131.382 445.333 135C445.333 138.62 447.792 141.403 448.547 143.739C449.339 146.191 449.002 149.871 451.059 152.712C453.133 155.576 456.74 156.39 458.777 157.88C460.792 159.354 462.668 162.561 466.058 163.668C469.35 164.742 472.724 163.284 475.333 163.284C477.939 163.284 481.321 164.74 484.609 163.668C487.999 162.562 489.874 159.354 491.889 157.88C493.924 156.392 497.533 155.576 499.607 152.713C501.663 149.873 501.329 146.185 502.119 143.739C502.871 141.412 505.333 138.618 505.333 135C505.333 131.38 502.875 128.598 502.119 126.261ZM497.659 142.298C496.736 145.154 496.978 148.351 495.811 149.963C494.628 151.596 491.52 152.342 489.122 154.096C486.75 155.831 485.088 158.58 483.155 159.211C481.326 159.808 478.345 158.596 475.333 158.596C472.3 158.596 469.35 159.811 467.512 159.211C465.579 158.58 463.919 155.833 461.545 154.096C459.161 152.353 456.035 151.591 454.856 149.963C453.692 148.356 453.925 145.137 453.008 142.298C452.109 139.516 450.021 137.107 450.021 135C450.021 132.891 452.107 130.49 453.008 127.702C453.93 124.846 453.689 121.649 454.856 120.037C456.038 118.405 459.148 117.657 461.545 115.904C463.924 114.164 465.576 111.421 467.512 110.789C469.339 110.193 472.33 111.404 475.333 111.404C478.372 111.404 481.315 110.189 483.155 110.789C485.088 111.42 486.749 114.169 489.122 115.904C491.506 117.648 494.631 118.409 495.811 120.038C496.975 121.644 496.741 124.86 497.659 127.702V127.702C498.558 130.484 500.646 132.893 500.646 135C500.646 137.109 498.56 139.51 497.659 142.298ZM486.131 127.477C487.047 128.393 487.047 129.877 486.131 130.792L474.4 142.523C473.485 143.438 472.001 143.438 471.086 142.523L464.535 135.973C463.62 135.058 463.62 133.574 464.535 132.658C465.451 131.743 466.935 131.743 467.85 132.658L472.743 137.551L482.817 127.477C483.732 126.562 485.216 126.562 486.131 127.477Z" fill="#242424"/>
</g>
<path d="M540.383 110.55L535.508 128H531.383L528.108 115.575L524.683 128L520.583 128.025L515.883 110.55H519.633L522.708 124.1L526.258 110.55H530.158L533.508 124.025L536.608 110.55H540.383ZM541.769 121.025C541.769 119.625 542.044 118.383 542.594 117.3C543.16 116.217 543.919 115.383 544.869 114.8C545.835 114.217 546.91 113.925 548.094 113.925C549.127 113.925 550.027 114.133 550.794 114.55C551.577 114.967 552.202 115.492 552.669 116.125V114.15H556.194V128H552.669V125.975C552.219 126.625 551.594 127.167 550.794 127.6C550.01 128.017 549.102 128.225 548.069 128.225C546.902 128.225 545.835 127.925 544.869 127.325C543.919 126.725 543.16 125.883 542.594 124.8C542.044 123.7 541.769 122.442 541.769 121.025ZM552.669 121.075C552.669 120.225 552.502 119.5 552.169 118.9C551.835 118.283 551.385 117.817 550.819 117.5C550.252 117.167 549.644 117 548.994 117C548.344 117 547.744 117.158 547.194 117.475C546.644 117.792 546.194 118.258 545.844 118.875C545.51 119.475 545.344 120.192 545.344 121.025C545.344 121.858 545.51 122.592 545.844 123.225C546.194 123.842 546.644 124.317 547.194 124.65C547.76 124.983 548.36 125.15 548.994 125.15C549.644 125.15 550.252 124.992 550.819 124.675C551.385 124.342 551.835 123.875 552.169 123.275C552.502 122.658 552.669 121.925 552.669 121.075ZM563.112 116.3C563.562 115.567 564.145 114.992 564.862 114.575C565.595 114.158 566.429 113.95 567.362 113.95V117.625H566.437C565.337 117.625 564.504 117.883 563.937 118.4C563.387 118.917 563.112 119.817 563.112 121.1V128H559.612V114.15H563.112V116.3ZM573.22 116.3C573.67 115.567 574.253 114.992 574.97 114.575C575.703 114.158 576.536 113.95 577.47 113.95V117.625H576.545C575.445 117.625 574.611 117.883 574.045 118.4C573.495 118.917 573.22 119.817 573.22 121.1V128H569.72V114.15H573.22V116.3ZM578.927 121.025C578.927 119.625 579.202 118.383 579.752 117.3C580.319 116.217 581.077 115.383 582.027 114.8C582.994 114.217 584.069 113.925 585.252 113.925C586.285 113.925 587.185 114.133 587.952 114.55C588.735 114.967 589.36 115.492 589.827 116.125V114.15H593.352V128H589.827V125.975C589.377 126.625 588.752 127.167 587.952 127.6C587.169 128.017 586.26 128.225 585.227 128.225C584.06 128.225 582.994 127.925 582.027 127.325C581.077 126.725 580.319 125.883 579.752 124.8C579.202 123.7 578.927 122.442 578.927 121.025ZM589.827 121.075C589.827 120.225 589.66 119.5 589.327 118.9C588.994 118.283 588.544 117.817 587.977 117.5C587.41 117.167 586.802 117 586.152 117C585.502 117 584.902 117.158 584.352 117.475C583.802 117.792 583.352 118.258 583.002 118.875C582.669 119.475 582.502 120.192 582.502 121.025C582.502 121.858 582.669 122.592 583.002 123.225C583.352 123.842 583.802 124.317 584.352 124.65C584.919 124.983 585.519 125.15 586.152 125.15C586.802 125.15 587.41 124.992 587.977 124.675C588.544 124.342 588.994 123.875 589.327 123.275C589.66 122.658 589.827 121.925 589.827 121.075ZM604.445 113.95C606.095 113.95 607.429 114.475 608.445 115.525C609.462 116.558 609.97 118.008 609.97 119.875V128H606.47V120.35C606.47 119.25 606.195 118.408 605.645 117.825C605.095 117.225 604.345 116.925 603.395 116.925C602.429 116.925 601.662 117.225 601.095 117.825C600.545 118.408 600.27 119.25 600.27 120.35V128H596.77V114.15H600.27V115.875C600.737 115.275 601.329 114.808 602.045 114.475C602.779 114.125 603.579 113.95 604.445 113.95ZM617.374 117.025V123.725C617.374 124.192 617.482 124.533 617.699 124.75C617.932 124.95 618.315 125.05 618.849 125.05H620.474V128H618.274C615.324 128 613.849 126.567 613.849 123.7V117.025H612.199V114.15H613.849V110.725H617.374V114.15H620.474V117.025H617.374ZM636.241 114.15L627.666 134.55H623.941L626.941 127.65L621.391 114.15H625.316L628.891 123.825L632.516 114.15H636.241ZM656.81 115.95C656.81 116.883 656.585 117.758 656.135 118.575C655.701 119.392 655.01 120.05 654.06 120.55C653.126 121.05 651.943 121.3 650.51 121.3H647.585V128H644.085V110.55H650.51C651.86 110.55 653.01 110.783 653.96 111.25C654.91 111.717 655.618 112.358 656.085 113.175C656.568 113.992 656.81 114.917 656.81 115.95ZM650.36 118.475C651.326 118.475 652.043 118.258 652.51 117.825C652.976 117.375 653.21 116.75 653.21 115.95C653.21 114.25 652.26 113.4 650.36 113.4H647.585V118.475H650.36ZM662.795 116.3C663.245 115.567 663.828 114.992 664.545 114.575C665.278 114.158 666.111 113.95 667.045 113.95V117.625H666.12C665.02 117.625 664.186 117.883 663.62 118.4C663.07 118.917 662.795 119.817 662.795 121.1V128H659.295V114.15H662.795V116.3ZM675.552 128.225C674.219 128.225 673.019 127.933 671.952 127.35C670.885 126.75 670.044 125.908 669.427 124.825C668.827 123.742 668.527 122.492 668.527 121.075C668.527 119.658 668.835 118.408 669.452 117.325C670.085 116.242 670.944 115.408 672.027 114.825C673.11 114.225 674.319 113.925 675.652 113.925C676.985 113.925 678.194 114.225 679.277 114.825C680.36 115.408 681.21 116.242 681.827 117.325C682.46 118.408 682.777 119.658 682.777 121.075C682.777 122.492 682.452 123.742 681.802 124.825C681.169 125.908 680.302 126.75 679.202 127.35C678.119 127.933 676.902 128.225 675.552 128.225ZM675.552 125.175C676.185 125.175 676.777 125.025 677.327 124.725C677.894 124.408 678.344 123.942 678.677 123.325C679.01 122.708 679.177 121.958 679.177 121.075C679.177 119.758 678.827 118.75 678.127 118.05C677.444 117.333 676.602 116.975 675.602 116.975C674.602 116.975 673.76 117.333 673.077 118.05C672.41 118.75 672.077 119.758 672.077 121.075C672.077 122.392 672.402 123.408 673.052 124.125C673.719 124.825 674.552 125.175 675.552 125.175ZM689.42 117.025V123.725C689.42 124.192 689.528 124.533 689.745 124.75C689.978 124.95 690.361 125.05 690.895 125.05H692.52V128H690.32C687.37 128 685.895 126.567 685.895 123.7V117.025H684.245V114.15H685.895V110.725H689.42V114.15H692.52V117.025H689.42ZM707.912 120.775C707.912 121.275 707.879 121.725 707.812 122.125H697.687C697.77 123.125 698.12 123.908 698.737 124.475C699.354 125.042 700.112 125.325 701.012 125.325C702.312 125.325 703.237 124.767 703.787 123.65H707.562C707.162 124.983 706.395 126.083 705.262 126.95C704.129 127.8 702.737 128.225 701.087 128.225C699.754 128.225 698.554 127.933 697.487 127.35C696.437 126.75 695.612 125.908 695.012 124.825C694.429 123.742 694.137 122.492 694.137 121.075C694.137 119.642 694.429 118.383 695.012 117.3C695.595 116.217 696.412 115.383 697.462 114.8C698.512 114.217 699.72 113.925 701.087 113.925C702.404 113.925 703.579 114.208 704.612 114.775C705.662 115.342 706.47 116.15 707.037 117.2C707.62 118.233 707.912 119.425 707.912 120.775ZM704.287 119.775C704.27 118.875 703.945 118.158 703.312 117.625C702.679 117.075 701.904 116.8 700.987 116.8C700.12 116.8 699.387 117.067 698.787 117.6C698.204 118.117 697.845 118.842 697.712 119.775H704.287ZM709.567 121.075C709.567 119.642 709.858 118.392 710.442 117.325C711.025 116.242 711.833 115.408 712.867 114.825C713.9 114.225 715.083 113.925 716.417 113.925C718.133 113.925 719.55 114.358 720.667 115.225C721.8 116.075 722.558 117.275 722.942 118.825H719.167C718.967 118.225 718.625 117.758 718.142 117.425C717.675 117.075 717.092 116.9 716.392 116.9C715.392 116.9 714.6 117.267 714.017 118C713.433 118.717 713.142 119.742 713.142 121.075C713.142 122.392 713.433 123.417 714.017 124.15C714.6 124.867 715.392 125.225 716.392 125.225C717.808 125.225 718.733 124.592 719.167 123.325H722.942C722.558 124.825 721.8 126.017 720.667 126.9C719.533 127.783 718.117 128.225 716.417 128.225C715.083 128.225 713.9 127.933 712.867 127.35C711.833 126.75 711.025 125.917 710.442 124.85C709.858 123.767 709.567 122.508 709.567 121.075ZM729.581 117.025V123.725C729.581 124.192 729.689 124.533 729.906 124.75C730.139 124.95 730.522 125.05 731.056 125.05H732.681V128H730.481C727.531 128 726.056 126.567 726.056 123.7V117.025H724.406V114.15H726.056V110.725H729.581V114.15H732.681V117.025H729.581ZM736.973 112.5C736.356 112.5 735.84 112.308 735.423 111.925C735.023 111.525 734.823 111.033 734.823 110.45C734.823 109.867 735.023 109.383 735.423 109C735.84 108.6 736.356 108.4 736.973 108.4C737.59 108.4 738.098 108.6 738.498 109C738.915 109.383 739.123 109.867 739.123 110.45C739.123 111.033 738.915 111.525 738.498 111.925C738.098 112.308 737.59 112.5 736.973 112.5ZM738.698 114.15V128H735.198V114.15H738.698ZM748.306 128.225C746.973 128.225 745.773 127.933 744.706 127.35C743.639 126.75 742.798 125.908 742.181 124.825C741.581 123.742 741.281 122.492 741.281 121.075C741.281 119.658 741.589 118.408 742.206 117.325C742.839 116.242 743.698 115.408 744.781 114.825C745.864 114.225 747.073 113.925 748.406 113.925C749.739 113.925 750.948 114.225 752.031 114.825C753.114 115.408 753.964 116.242 754.581 117.325C755.214 118.408 755.531 119.658 755.531 121.075C755.531 122.492 755.206 123.742 754.556 124.825C753.923 125.908 753.056 126.75 751.956 127.35C750.873 127.933 749.656 128.225 748.306 128.225ZM748.306 125.175C748.939 125.175 749.531 125.025 750.081 124.725C750.648 124.408 751.098 123.942 751.431 123.325C751.764 122.708 751.931 121.958 751.931 121.075C751.931 119.758 751.581 118.75 750.881 118.05C750.198 117.333 749.356 116.975 748.356 116.975C747.356 116.975 746.514 117.333 745.831 118.05C745.164 118.75 744.831 119.758 744.831 121.075C744.831 122.392 745.156 123.408 745.806 124.125C746.473 124.825 747.306 125.175 748.306 125.175ZM765.773 113.95C767.423 113.95 768.757 114.475 769.773 115.525C770.79 116.558 771.298 118.008 771.298 119.875V128H767.798V120.35C767.798 119.25 767.523 118.408 766.973 117.825C766.423 117.225 765.673 116.925 764.723 116.925C763.757 116.925 762.99 117.225 762.423 117.825C761.873 118.408 761.598 119.25 761.598 120.35V128H758.098V114.15H761.598V115.875C762.065 115.275 762.657 114.808 763.373 114.475C764.107 114.125 764.907 113.95 765.773 113.95Z" fill="#242424"/>
<path d="M523.173 162.14C521.88 162.14 520.687 161.84 519.593 161.24C518.513 160.627 517.653 159.78 517.013 158.7C516.387 157.607 516.073 156.38 516.073 155.02C516.073 153.66 516.387 152.44 517.013 151.36C517.653 150.28 518.513 149.44 519.593 148.84C520.687 148.227 521.88 147.92 523.173 147.92C524.48 147.92 525.673 148.227 526.753 148.84C527.847 149.44 528.707 150.28 529.333 151.36C529.96 152.44 530.273 153.66 530.273 155.02C530.273 156.38 529.96 157.607 529.333 158.7C528.707 159.78 527.847 160.627 526.753 161.24C525.673 161.84 524.48 162.14 523.173 162.14ZM523.173 160.16C524.093 160.16 524.913 159.953 525.633 159.54C526.353 159.113 526.913 158.513 527.313 157.74C527.727 156.953 527.933 156.047 527.933 155.02C527.933 153.993 527.727 153.093 527.313 152.32C526.913 151.547 526.353 150.953 525.633 150.54C524.913 150.127 524.093 149.92 523.173 149.92C522.253 149.92 521.433 150.127 520.713 150.54C519.993 150.953 519.427 151.547 519.013 152.32C518.613 153.093 518.413 153.993 518.413 155.02C518.413 156.047 518.613 156.953 519.013 157.74C519.427 158.513 519.993 159.113 520.713 159.54C521.433 159.953 522.253 160.16 523.173 160.16ZM536.777 159.96L539.897 150.98H542.317L538.117 162H535.397L531.217 150.98H533.657L536.777 159.96ZM554.14 156.22C554.14 156.633 554.114 157.007 554.06 157.34H545.64C545.707 158.22 546.034 158.927 546.62 159.46C547.207 159.993 547.927 160.26 548.78 160.26C550.007 160.26 550.874 159.747 551.38 158.72H553.84C553.507 159.733 552.9 160.567 552.02 161.22C551.154 161.86 550.074 162.18 548.78 162.18C547.727 162.18 546.78 161.947 545.94 161.48C545.114 161 544.46 160.333 543.98 159.48C543.514 158.613 543.28 157.613 543.28 156.48C543.28 155.347 543.507 154.353 543.96 153.5C544.427 152.633 545.074 151.967 545.9 151.5C546.74 151.033 547.7 150.8 548.78 150.8C549.82 150.8 550.747 151.027 551.56 151.48C552.374 151.933 553.007 152.573 553.46 153.4C553.914 154.213 554.14 155.153 554.14 156.22ZM551.76 155.5C551.747 154.66 551.447 153.987 550.86 153.48C550.274 152.973 549.547 152.72 548.68 152.72C547.894 152.72 547.22 152.973 546.66 153.48C546.1 153.973 545.767 154.647 545.66 155.5H551.76ZM558.664 152.58C558.997 152.02 559.437 151.587 559.984 151.28C560.544 150.96 561.204 150.8 561.964 150.8V153.16H561.384C560.491 153.16 559.811 153.387 559.344 153.84C558.891 154.293 558.664 155.08 558.664 156.2V162H556.384V150.98H558.664V152.58ZM570.215 158.9C571.495 157.793 572.502 156.887 573.235 156.18C573.982 155.46 574.602 154.713 575.095 153.94C575.589 153.167 575.835 152.393 575.835 151.62C575.835 150.82 575.642 150.193 575.255 149.74C574.882 149.287 574.289 149.06 573.475 149.06C572.689 149.06 572.075 149.313 571.635 149.82C571.209 150.313 570.982 150.98 570.955 151.82H568.755C568.795 150.3 569.249 149.14 570.115 148.34C570.995 147.527 572.109 147.12 573.455 147.12C574.909 147.12 576.042 147.52 576.855 148.32C577.682 149.12 578.095 150.187 578.095 151.52C578.095 152.48 577.849 153.407 577.355 154.3C576.875 155.18 576.295 155.973 575.615 156.68C574.949 157.373 574.095 158.18 573.055 159.1L572.155 159.9H578.495V161.8H568.775V160.14L570.215 158.9ZM595.914 150.98L589.154 167.18H586.794L589.034 161.82L584.694 150.98H587.234L590.334 159.38L593.554 150.98H595.914ZM607.734 156.22C607.734 156.633 607.707 157.007 607.654 157.34H599.234C599.301 158.22 599.627 158.927 600.214 159.46C600.801 159.993 601.521 160.26 602.374 160.26C603.601 160.26 604.467 159.747 604.974 158.72H607.434C607.101 159.733 606.494 160.567 605.614 161.22C604.747 161.86 603.667 162.18 602.374 162.18C601.321 162.18 600.374 161.947 599.534 161.48C598.707 161 598.054 160.333 597.574 159.48C597.107 158.613 596.874 157.613 596.874 156.48C596.874 155.347 597.101 154.353 597.554 153.5C598.021 152.633 598.667 151.967 599.494 151.5C600.334 151.033 601.294 150.8 602.374 150.8C603.414 150.8 604.341 151.027 605.154 151.48C605.967 151.933 606.601 152.573 607.054 153.4C607.507 154.213 607.734 155.153 607.734 156.22ZM605.354 155.5C605.341 154.66 605.041 153.987 604.454 153.48C603.867 152.973 603.141 152.72 602.274 152.72C601.487 152.72 600.814 152.973 600.254 153.48C599.694 153.973 599.361 154.647 599.254 155.5H605.354ZM609.218 156.44C609.218 155.333 609.445 154.353 609.898 153.5C610.365 152.647 610.991 151.987 611.778 151.52C612.578 151.04 613.458 150.8 614.418 150.8C615.285 150.8 616.038 150.973 616.678 151.32C617.331 151.653 617.851 152.073 618.238 152.58V150.98H620.538V162H618.238V160.36C617.851 160.88 617.325 161.313 616.658 161.66C615.991 162.007 615.231 162.18 614.378 162.18C613.431 162.18 612.565 161.94 611.778 161.46C610.991 160.967 610.365 160.287 609.898 159.42C609.445 158.54 609.218 157.547 609.218 156.44ZM618.238 156.48C618.238 155.72 618.078 155.06 617.758 154.5C617.451 153.94 617.045 153.513 616.538 153.22C616.031 152.927 615.485 152.78 614.898 152.78C614.311 152.78 613.765 152.927 613.258 153.22C612.751 153.5 612.338 153.92 612.018 154.48C611.711 155.027 611.558 155.68 611.558 156.44C611.558 157.2 611.711 157.867 612.018 158.44C612.338 159.013 612.751 159.453 613.258 159.76C613.778 160.053 614.325 160.2 614.898 160.2C615.485 160.2 616.031 160.053 616.538 159.76C617.045 159.467 617.451 159.04 617.758 158.48C618.078 157.907 618.238 157.24 618.238 156.48ZM625.813 152.58C626.146 152.02 626.586 151.587 627.133 151.28C627.693 150.96 628.353 150.8 629.113 150.8V153.16H628.533C627.639 153.16 626.959 153.387 626.493 153.84C626.039 154.293 625.813 155.08 625.813 156.2V162H623.533V150.98H625.813V152.58ZM635.208 162.18C634.342 162.18 633.562 162.027 632.868 161.72C632.188 161.4 631.648 160.973 631.248 160.44C630.848 159.893 630.635 159.287 630.608 158.62H632.968C633.008 159.087 633.228 159.48 633.628 159.8C634.042 160.107 634.555 160.26 635.168 160.26C635.808 160.26 636.302 160.14 636.648 159.9C637.008 159.647 637.188 159.327 637.188 158.94C637.188 158.527 636.988 158.22 636.588 158.02C636.202 157.82 635.582 157.6 634.728 157.36C633.902 157.133 633.228 156.913 632.708 156.7C632.188 156.487 631.735 156.16 631.348 155.72C630.975 155.28 630.788 154.7 630.788 153.98C630.788 153.393 630.962 152.86 631.308 152.38C631.655 151.887 632.148 151.5 632.788 151.22C633.442 150.94 634.188 150.8 635.028 150.8C636.282 150.8 637.288 151.12 638.048 151.76C638.822 152.387 639.235 153.247 639.288 154.34H637.008C636.968 153.847 636.768 153.453 636.408 153.16C636.048 152.867 635.562 152.72 634.948 152.72C634.348 152.72 633.888 152.833 633.568 153.06C633.248 153.287 633.088 153.587 633.088 153.96C633.088 154.253 633.195 154.5 633.408 154.7C633.622 154.9 633.882 155.06 634.188 155.18C634.495 155.287 634.948 155.427 635.548 155.6C636.348 155.813 637.002 156.033 637.508 156.26C638.028 156.473 638.475 156.793 638.848 157.22C639.222 157.647 639.415 158.213 639.428 158.92C639.428 159.547 639.255 160.107 638.908 160.6C638.562 161.093 638.068 161.48 637.428 161.76C636.802 162.04 636.062 162.18 635.208 162.18Z" fill="#898989"/>
<g clip-path="url(#clip1_0_1245)">
<path d="M884.015 136.102V108.78C884.015 107.805 883.224 107.015 882.25 107.015H834.962C833.987 107.015 833.197 107.805 833.197 108.78V138.28C832.345 138.404 831.513 138.735 830.777 139.281C828.455 140.927 827.906 144.611 829.851 146.883L837.801 156.52C842.722 162.28 847.949 162.985 855.721 162.985C862.39 162.985 865.371 163.015 871.183 161.691L876.843 160.337C877.76 161.618 879.217 162.449 880.855 162.449H883.643C886.413 162.449 888.667 160.074 888.667 157.156V141.378C888.667 138.592 886.612 136.303 884.015 136.102ZM876.081 139.733L873.73 138.538C869.863 136.587 865.393 136.514 861.465 138.34C860.393 138.762 858.056 140.176 856.844 140.129H848.683C845.977 140.129 843.774 142.331 843.774 145.038V146.325C843.759 146.309 843.743 146.294 843.728 146.277L837.901 139.952C837.548 139.569 837.152 139.249 836.727 138.992V121.481H851.171V127.951C851.171 128.926 851.961 129.716 852.936 129.716H864.073C865.048 129.716 865.838 128.926 865.838 127.951V121.481H880.485V136.102C878.423 136.261 876.703 137.736 876.081 139.733ZM854.701 121.481H862.308V126.186H854.701V121.481ZM880.485 117.951H865.838V110.545H880.485V117.951H880.485ZM862.308 110.545V117.951H854.701V110.545H862.308ZM851.171 110.545V117.951H836.727V110.545H851.171ZM870.364 158.257C864.995 159.487 861.761 159.437 855.784 159.437C848.489 159.437 844.964 159.319 840.524 154.274L832.574 144.636C831.191 142.836 833.696 140.71 835.305 142.344L841.132 148.669C842.672 150.294 844.61 151.189 846.999 151.241H863.156C864.13 151.241 864.921 150.451 864.921 149.476C864.921 148.501 864.13 147.711 863.156 147.711H847.304V145.037C847.304 144.277 847.923 143.658 848.683 143.658H856.844C858.682 143.79 861.336 142.255 862.953 141.541C865.895 140.173 869.243 140.227 872.135 141.687L875.831 143.565V156.949L870.364 158.257ZM885.137 157.156C885.137 158.128 884.467 158.918 883.643 158.918H880.855C880.031 158.918 879.361 158.128 879.361 157.156V141.378C879.361 140.407 880.032 139.616 880.855 139.616H883.643C884.467 139.616 885.137 140.407 885.137 141.378V157.156Z" fill="#242424"/>
</g>
<path d="M911.167 110.55V113.375H903.892V117.85H909.467V120.625H903.892V128H900.392V110.55H911.167ZM917.149 116.3C917.599 115.567 918.182 114.992 918.899 114.575C919.632 114.158 920.465 113.95 921.399 113.95V117.625H920.474C919.374 117.625 918.54 117.883 917.974 118.4C917.424 118.917 917.149 119.817 917.149 121.1V128H913.649V114.15H917.149V116.3ZM936.631 120.775C936.631 121.275 936.598 121.725 936.531 122.125H926.406C926.489 123.125 926.839 123.908 927.456 124.475C928.073 125.042 928.831 125.325 929.731 125.325C931.031 125.325 931.956 124.767 932.506 123.65H936.281C935.881 124.983 935.114 126.083 933.981 126.95C932.848 127.8 931.456 128.225 929.806 128.225C928.473 128.225 927.273 127.933 926.206 127.35C925.156 126.75 924.331 125.908 923.731 124.825C923.148 123.742 922.856 122.492 922.856 121.075C922.856 119.642 923.148 118.383 923.731 117.3C924.314 116.217 925.131 115.383 926.181 114.8C927.231 114.217 928.439 113.925 929.806 113.925C931.123 113.925 932.298 114.208 933.331 114.775C934.381 115.342 935.189 116.15 935.756 117.2C936.339 118.233 936.631 119.425 936.631 120.775ZM933.006 119.775C932.989 118.875 932.664 118.158 932.031 117.625C931.398 117.075 930.623 116.8 929.706 116.8C928.839 116.8 928.106 117.067 927.506 117.6C926.923 118.117 926.564 118.842 926.431 119.775H933.006ZM952.061 120.775C952.061 121.275 952.027 121.725 951.961 122.125H941.836C941.919 123.125 942.269 123.908 942.886 124.475C943.502 125.042 944.261 125.325 945.161 125.325C946.461 125.325 947.386 124.767 947.936 123.65H951.711C951.311 124.983 950.544 126.083 949.411 126.95C948.277 127.8 946.886 128.225 945.236 128.225C943.902 128.225 942.702 127.933 941.636 127.35C940.586 126.75 939.761 125.908 939.161 124.825C938.577 123.742 938.286 122.492 938.286 121.075C938.286 119.642 938.577 118.383 939.161 117.3C939.744 116.217 940.561 115.383 941.611 114.8C942.661 114.217 943.869 113.925 945.236 113.925C946.552 113.925 947.727 114.208 948.761 114.775C949.811 115.342 950.619 116.15 951.186 117.2C951.769 118.233 952.061 119.425 952.061 120.775ZM948.436 119.775C948.419 118.875 948.094 118.158 947.461 117.625C946.827 117.075 946.052 116.8 945.136 116.8C944.269 116.8 943.536 117.067 942.936 117.6C942.352 118.117 941.994 118.842 941.861 119.775H948.436ZM966.597 128.175C965.381 128.175 964.281 127.967 963.297 127.55C962.331 127.133 961.564 126.533 960.997 125.75C960.431 124.967 960.139 124.042 960.122 122.975H963.872C963.922 123.692 964.172 124.258 964.622 124.675C965.089 125.092 965.722 125.3 966.522 125.3C967.339 125.3 967.981 125.108 968.447 124.725C968.914 124.325 969.147 123.808 969.147 123.175C969.147 122.658 968.989 122.233 968.672 121.9C968.356 121.567 967.956 121.308 967.472 121.125C967.006 120.925 966.356 120.708 965.522 120.475C964.389 120.142 963.464 119.817 962.747 119.5C962.047 119.167 961.439 118.675 960.922 118.025C960.422 117.358 960.172 116.475 960.172 115.375C960.172 114.342 960.431 113.442 960.947 112.675C961.464 111.908 962.189 111.325 963.122 110.925C964.056 110.508 965.122 110.3 966.322 110.3C968.122 110.3 969.581 110.742 970.697 111.625C971.831 112.492 972.456 113.708 972.572 115.275H968.722C968.689 114.675 968.431 114.183 967.947 113.8C967.481 113.4 966.856 113.2 966.072 113.2C965.389 113.2 964.839 113.375 964.422 113.725C964.022 114.075 963.822 114.583 963.822 115.25C963.822 115.717 963.972 116.108 964.272 116.425C964.589 116.725 964.972 116.975 965.422 117.175C965.889 117.358 966.539 117.575 967.372 117.825C968.506 118.158 969.431 118.492 970.147 118.825C970.864 119.158 971.481 119.658 971.997 120.325C972.514 120.992 972.772 121.867 972.772 122.95C972.772 123.883 972.531 124.75 972.047 125.55C971.564 126.35 970.856 126.992 969.922 127.475C968.989 127.942 967.881 128.175 966.597 128.175ZM983.607 113.95C984.657 113.95 985.59 114.183 986.407 114.65C987.223 115.1 987.857 115.775 988.307 116.675C988.773 117.558 989.007 118.625 989.007 119.875V128H985.507V120.35C985.507 119.25 985.232 118.408 984.682 117.825C984.132 117.225 983.382 116.925 982.432 116.925C981.465 116.925 980.698 117.225 980.132 117.825C979.582 118.408 979.307 119.25 979.307 120.35V128H975.807V109.5H979.307V115.875C979.757 115.275 980.357 114.808 981.107 114.475C981.857 114.125 982.69 113.95 983.607 113.95ZM994.11 112.5C993.493 112.5 992.977 112.308 992.56 111.925C992.16 111.525 991.96 111.033 991.96 110.45C991.96 109.867 992.16 109.383 992.56 109C992.977 108.6 993.493 108.4 994.11 108.4C994.727 108.4 995.235 108.6 995.635 109C996.052 109.383 996.26 109.867 996.26 110.45C996.26 111.033 996.052 111.525 995.635 111.925C995.235 112.308 994.727 112.5 994.11 112.5ZM995.835 114.15V128H992.335V114.15H995.835ZM1002.79 116.15C1003.24 115.517 1003.86 114.992 1004.64 114.575C1005.44 114.142 1006.35 113.925 1007.37 113.925C1008.55 113.925 1009.62 114.217 1010.57 114.8C1011.53 115.383 1012.29 116.217 1012.84 117.3C1013.41 118.367 1013.69 119.608 1013.69 121.025C1013.69 122.442 1013.41 123.7 1012.84 124.8C1012.29 125.883 1011.53 126.725 1010.57 127.325C1009.62 127.925 1008.55 128.225 1007.37 128.225C1006.35 128.225 1005.45 128.017 1004.67 127.6C1003.9 127.183 1003.28 126.658 1002.79 126.025V134.6H999.293V114.15H1002.79V116.15ZM1010.12 121.025C1010.12 120.192 1009.94 119.475 1009.59 118.875C1009.26 118.258 1008.81 117.792 1008.24 117.475C1007.69 117.158 1007.09 117 1006.44 117C1005.81 117 1005.21 117.167 1004.64 117.5C1004.09 117.817 1003.64 118.283 1003.29 118.9C1002.96 119.517 1002.79 120.242 1002.79 121.075C1002.79 121.908 1002.96 122.633 1003.29 123.25C1003.64 123.867 1004.09 124.342 1004.64 124.675C1005.21 124.992 1005.81 125.15 1006.44 125.15C1007.09 125.15 1007.69 124.983 1008.24 124.65C1008.81 124.317 1009.26 123.842 1009.59 123.225C1009.94 122.608 1010.12 121.875 1010.12 121.025ZM1019.74 116.15C1020.19 115.517 1020.8 114.992 1021.59 114.575C1022.39 114.142 1023.29 113.925 1024.31 113.925C1025.49 113.925 1026.56 114.217 1027.51 114.8C1028.48 115.383 1029.24 116.217 1029.79 117.3C1030.35 118.367 1030.64 119.608 1030.64 121.025C1030.64 122.442 1030.35 123.7 1029.79 124.8C1029.24 125.883 1028.48 126.725 1027.51 127.325C1026.56 127.925 1025.49 128.225 1024.31 128.225C1023.29 128.225 1022.39 128.017 1021.61 127.6C1020.84 127.183 1020.22 126.658 1019.74 126.025V134.6H1016.24V114.15H1019.74V116.15ZM1027.06 121.025C1027.06 120.192 1026.89 119.475 1026.54 118.875C1026.2 118.258 1025.75 117.792 1025.19 117.475C1024.64 117.158 1024.04 117 1023.39 117C1022.75 117 1022.15 117.167 1021.59 117.5C1021.04 117.817 1020.59 118.283 1020.24 118.9C1019.9 119.517 1019.74 120.242 1019.74 121.075C1019.74 121.908 1019.9 122.633 1020.24 123.25C1020.59 123.867 1021.04 124.342 1021.59 124.675C1022.15 124.992 1022.75 125.15 1023.39 125.15C1024.04 125.15 1024.64 124.983 1025.19 124.65C1025.75 124.317 1026.2 123.842 1026.54 123.225C1026.89 122.608 1027.06 121.875 1027.06 121.025ZM1034.95 112.5C1034.34 112.5 1033.82 112.308 1033.4 111.925C1033 111.525 1032.8 111.033 1032.8 110.45C1032.8 109.867 1033 109.383 1033.4 109C1033.82 108.6 1034.34 108.4 1034.95 108.4C1035.57 108.4 1036.08 108.6 1036.48 109C1036.9 109.383 1037.1 109.867 1037.1 110.45C1037.1 111.033 1036.9 111.525 1036.48 111.925C1036.08 112.308 1035.57 112.5 1034.95 112.5ZM1036.68 114.15V128H1033.18V114.15H1036.68ZM1047.81 113.95C1049.46 113.95 1050.8 114.475 1051.81 115.525C1052.83 116.558 1053.34 118.008 1053.34 119.875V128H1049.84V120.35C1049.84 119.25 1049.56 118.408 1049.01 117.825C1048.46 117.225 1047.71 116.925 1046.76 116.925C1045.8 116.925 1045.03 117.225 1044.46 117.825C1043.91 118.408 1043.64 119.25 1043.64 120.35V128H1040.14V114.15H1043.64V115.875C1044.1 115.275 1044.7 114.808 1045.41 114.475C1046.15 114.125 1046.95 113.95 1047.81 113.95ZM1062.09 113.925C1063.12 113.925 1064.03 114.133 1064.82 114.55C1065.6 114.95 1066.22 115.475 1066.67 116.125V114.15H1070.19V128.1C1070.19 129.383 1069.93 130.525 1069.42 131.525C1068.9 132.542 1068.12 133.342 1067.09 133.925C1066.06 134.525 1064.81 134.825 1063.34 134.825C1061.37 134.825 1059.76 134.367 1058.49 133.45C1057.24 132.533 1056.53 131.283 1056.37 129.7H1059.84C1060.02 130.333 1060.42 130.833 1061.02 131.2C1061.63 131.583 1062.37 131.775 1063.24 131.775C1064.26 131.775 1065.08 131.467 1065.72 130.85C1066.35 130.25 1066.67 129.333 1066.67 128.1V125.95C1066.22 126.6 1065.59 127.142 1064.79 127.575C1064.01 128.008 1063.11 128.225 1062.09 128.225C1060.92 128.225 1059.86 127.925 1058.89 127.325C1057.92 126.725 1057.16 125.883 1056.59 124.8C1056.04 123.7 1055.77 122.442 1055.77 121.025C1055.77 119.625 1056.04 118.383 1056.59 117.3C1057.16 116.217 1057.92 115.383 1058.87 114.8C1059.83 114.217 1060.91 113.925 1062.09 113.925ZM1066.67 121.075C1066.67 120.225 1066.5 119.5 1066.17 118.9C1065.83 118.283 1065.38 117.817 1064.82 117.5C1064.25 117.167 1063.64 117 1062.99 117C1062.34 117 1061.74 117.158 1061.19 117.475C1060.64 117.792 1060.19 118.258 1059.84 118.875C1059.51 119.475 1059.34 120.192 1059.34 121.025C1059.34 121.858 1059.51 122.592 1059.84 123.225C1060.19 123.842 1060.64 124.317 1061.19 124.65C1061.76 124.983 1062.36 125.15 1062.99 125.15C1063.64 125.15 1064.25 124.992 1064.82 124.675C1065.38 124.342 1065.83 123.875 1066.17 123.275C1066.5 122.658 1066.67 121.925 1066.67 121.075Z" fill="#242424"/>
<path d="M906.507 162.14C905.213 162.14 904.02 161.84 902.927 161.24C901.847 160.627 900.987 159.78 900.347 158.7C899.72 157.607 899.407 156.38 899.407 155.02C899.407 153.66 899.72 152.44 900.347 151.36C900.987 150.28 901.847 149.44 902.927 148.84C904.02 148.227 905.213 147.92 906.507 147.92C907.813 147.92 909.007 148.227 910.087 148.84C911.18 149.44 912.04 150.28 912.667 151.36C913.293 152.44 913.607 153.66 913.607 155.02C913.607 156.38 913.293 157.607 912.667 158.7C912.04 159.78 911.18 160.627 910.087 161.24C909.007 161.84 907.813 162.14 906.507 162.14ZM906.507 160.16C907.427 160.16 908.247 159.953 908.967 159.54C909.687 159.113 910.247 158.513 910.647 157.74C911.06 156.953 911.267 156.047 911.267 155.02C911.267 153.993 911.06 153.093 910.647 152.32C910.247 151.547 909.687 150.953 908.967 150.54C908.247 150.127 907.427 149.92 906.507 149.92C905.587 149.92 904.767 150.127 904.047 150.54C903.327 150.953 902.76 151.547 902.347 152.32C901.947 153.093 901.747 153.993 901.747 155.02C901.747 156.047 901.947 156.953 902.347 157.74C902.76 158.513 903.327 159.113 904.047 159.54C904.767 159.953 905.587 160.16 906.507 160.16ZM918.13 152.58C918.464 152.02 918.904 151.587 919.45 151.28C920.01 150.96 920.67 150.8 921.43 150.8V153.16H920.85C919.957 153.16 919.277 153.387 918.81 153.84C918.357 154.293 918.13 155.08 918.13 156.2V162H915.85V150.98H918.13V152.58ZM922.766 156.44C922.766 155.333 922.993 154.353 923.446 153.5C923.913 152.647 924.539 151.987 925.326 151.52C926.126 151.04 927.013 150.8 927.986 150.8C928.706 150.8 929.413 150.96 930.106 151.28C930.813 151.587 931.373 152 931.786 152.52V147.2H934.086V162H931.786V160.34C931.413 160.873 930.893 161.313 930.226 161.66C929.573 162.007 928.819 162.18 927.966 162.18C927.006 162.18 926.126 161.94 925.326 161.46C924.539 160.967 923.913 160.287 923.446 159.42C922.993 158.54 922.766 157.547 922.766 156.44ZM931.786 156.48C931.786 155.72 931.626 155.06 931.306 154.5C930.999 153.94 930.593 153.513 930.086 153.22C929.579 152.927 929.033 152.78 928.446 152.78C927.859 152.78 927.313 152.927 926.806 153.22C926.299 153.5 925.886 153.92 925.566 154.48C925.259 155.027 925.106 155.68 925.106 156.44C925.106 157.2 925.259 157.867 925.566 158.44C925.886 159.013 926.299 159.453 926.806 159.76C927.326 160.053 927.873 160.2 928.446 160.2C929.033 160.2 929.579 160.053 930.086 159.76C930.593 159.467 930.999 159.04 931.306 158.48C931.626 157.907 931.786 157.24 931.786 156.48ZM947.181 156.22C947.181 156.633 947.154 157.007 947.101 157.34H938.681C938.747 158.22 939.074 158.927 939.661 159.46C940.247 159.993 940.967 160.26 941.821 160.26C943.047 160.26 943.914 159.747 944.421 158.72H946.881C946.547 159.733 945.941 160.567 945.061 161.22C944.194 161.86 943.114 162.18 941.821 162.18C940.767 162.18 939.821 161.947 938.981 161.48C938.154 161 937.501 160.333 937.021 159.48C936.554 158.613 936.321 157.613 936.321 156.48C936.321 155.347 936.547 154.353 937.001 153.5C937.467 152.633 938.114 151.967 938.941 151.5C939.781 151.033 940.741 150.8 941.821 150.8C942.861 150.8 943.787 151.027 944.601 151.48C945.414 151.933 946.047 152.573 946.501 153.4C946.954 154.213 947.181 155.153 947.181 156.22ZM944.801 155.5C944.787 154.66 944.487 153.987 943.901 153.48C943.314 152.973 942.587 152.72 941.721 152.72C940.934 152.72 940.261 152.973 939.701 153.48C939.141 153.973 938.807 154.647 938.701 155.5H944.801ZM951.705 152.58C952.038 152.02 952.478 151.587 953.025 151.28C953.585 150.96 954.245 150.8 955.005 150.8V153.16H954.425C953.531 153.16 952.851 153.387 952.385 153.84C951.931 154.293 951.705 155.08 951.705 156.2V162H949.425V150.98H951.705V152.58ZM967.076 162.18C966.036 162.18 965.096 161.947 964.256 161.48C963.416 161 962.756 160.333 962.276 159.48C961.796 158.613 961.556 157.613 961.556 156.48C961.556 155.36 961.802 154.367 962.296 153.5C962.789 152.633 963.462 151.967 964.316 151.5C965.169 151.033 966.122 150.8 967.176 150.8C968.229 150.8 969.182 151.033 970.036 151.5C970.889 151.967 971.562 152.633 972.056 153.5C972.549 154.367 972.796 155.36 972.796 156.48C972.796 157.6 972.542 158.593 972.036 159.46C971.529 160.327 970.836 161 969.956 161.48C969.089 161.947 968.129 162.18 967.076 162.18ZM967.076 160.2C967.662 160.2 968.209 160.06 968.716 159.78C969.236 159.5 969.656 159.08 969.976 158.52C970.296 157.96 970.456 157.28 970.456 156.48C970.456 155.68 970.302 155.007 969.996 154.46C969.689 153.9 969.282 153.48 968.776 153.2C968.269 152.92 967.722 152.78 967.136 152.78C966.549 152.78 966.002 152.92 965.496 153.2C965.002 153.48 964.609 153.9 964.316 154.46C964.022 155.007 963.876 155.68 963.876 156.48C963.876 157.667 964.176 158.587 964.776 159.24C965.389 159.88 966.156 160.2 967.076 160.2ZM979.31 159.96L982.43 150.98H984.85L980.65 162H977.93L973.75 150.98H976.19L979.31 159.96ZM996.673 156.22C996.673 156.633 996.646 157.007 996.593 157.34H988.173C988.24 158.22 988.566 158.927 989.153 159.46C989.74 159.993 990.46 160.26 991.313 160.26C992.54 160.26 993.406 159.747 993.913 158.72H996.373C996.04 159.733 995.433 160.567 994.553 161.22C993.686 161.86 992.606 162.18 991.313 162.18C990.26 162.18 989.313 161.947 988.473 161.48C987.646 161 986.993 160.333 986.513 159.48C986.046 158.613 985.813 157.613 985.813 156.48C985.813 155.347 986.04 154.353 986.493 153.5C986.96 152.633 987.606 151.967 988.433 151.5C989.273 151.033 990.233 150.8 991.313 150.8C992.353 150.8 993.28 151.027 994.093 151.48C994.906 151.933 995.54 152.573 995.993 153.4C996.446 154.213 996.673 155.153 996.673 156.22ZM994.293 155.5C994.28 154.66 993.98 153.987 993.393 153.48C992.806 152.973 992.08 152.72 991.213 152.72C990.426 152.72 989.753 152.973 989.193 153.48C988.633 153.973 988.3 154.647 988.193 155.5H994.293ZM1001.2 152.58C1001.53 152.02 1001.97 151.587 1002.52 151.28C1003.08 150.96 1003.74 150.8 1004.5 150.8V153.16H1003.92C1003.02 153.16 1002.34 153.387 1001.88 153.84C1001.42 154.293 1001.2 155.08 1001.2 156.2V162H998.917V150.98H1001.2V152.58ZM1011.19 149.5V147.42H1015.35V162H1013.05V149.5H1011.19ZM1027.88 149.38H1021.18V153.36C1021.46 152.987 1021.87 152.673 1022.42 152.42C1022.98 152.167 1023.57 152.04 1024.2 152.04C1025.32 152.04 1026.23 152.28 1026.92 152.76C1027.63 153.24 1028.13 153.847 1028.42 154.58C1028.73 155.313 1028.88 156.087 1028.88 156.9C1028.88 157.887 1028.69 158.767 1028.3 159.54C1027.93 160.3 1027.36 160.9 1026.6 161.34C1025.85 161.78 1024.93 162 1023.84 162C1022.39 162 1021.22 161.64 1020.34 160.92C1019.46 160.2 1018.93 159.247 1018.76 158.06H1020.98C1021.13 158.687 1021.45 159.187 1021.96 159.56C1022.47 159.92 1023.1 160.1 1023.86 160.1C1024.81 160.1 1025.51 159.813 1025.98 159.24C1026.46 158.667 1026.7 157.907 1026.7 156.96C1026.7 156 1026.46 155.267 1025.98 154.76C1025.5 154.24 1024.79 153.98 1023.86 153.98C1023.21 153.98 1022.65 154.147 1022.2 154.48C1021.76 154.8 1021.44 155.24 1021.24 155.8H1019.08V147.38H1027.88V149.38ZM1031.25 154.52C1031.25 152.213 1031.64 150.413 1032.41 149.12C1033.2 147.813 1034.55 147.16 1036.45 147.16C1038.36 147.16 1039.7 147.813 1040.47 149.12C1041.26 150.413 1041.65 152.213 1041.65 154.52C1041.65 156.853 1041.26 158.68 1040.47 160C1039.7 161.307 1038.36 161.96 1036.45 161.96C1034.55 161.96 1033.2 161.307 1032.41 160C1031.64 158.68 1031.25 156.853 1031.25 154.52ZM1039.41 154.52C1039.41 153.44 1039.34 152.527 1039.19 151.78C1039.06 151.033 1038.78 150.427 1038.35 149.96C1037.93 149.48 1037.29 149.24 1036.45 149.24C1035.61 149.24 1034.98 149.48 1034.55 149.96C1034.13 150.427 1033.84 151.033 1033.69 151.78C1033.56 152.527 1033.49 153.44 1033.49 154.52C1033.49 155.64 1033.56 156.58 1033.69 157.34C1033.83 158.1 1034.11 158.713 1034.53 159.18C1034.97 159.647 1035.61 159.88 1036.45 159.88C1037.29 159.88 1037.93 159.647 1038.35 159.18C1038.79 158.713 1039.08 158.1 1039.21 157.34C1039.35 156.58 1039.41 155.64 1039.41 154.52ZM1058.94 158.04C1058.94 158.707 1058.77 159.333 1058.44 159.92C1058.12 160.507 1057.64 161 1057 161.4C1056.37 161.8 1055.63 162.04 1054.76 162.12V163.74H1053.46V162.12C1052.21 162 1051.19 161.607 1050.42 160.94C1049.65 160.273 1049.26 159.393 1049.26 158.3H1051.7C1051.74 158.82 1051.91 159.253 1052.2 159.6C1052.49 159.933 1052.91 160.147 1053.46 160.24V155.84C1052.57 155.613 1051.84 155.387 1051.28 155.16C1050.72 154.92 1050.24 154.547 1049.84 154.04C1049.45 153.533 1049.26 152.84 1049.26 151.96C1049.26 150.853 1049.65 149.94 1050.42 149.22C1051.19 148.487 1052.21 148.06 1053.46 147.94V146.32H1054.76V147.94C1055.93 148.047 1056.87 148.42 1057.58 149.06C1058.3 149.687 1058.71 150.553 1058.8 151.66H1056.36C1056.32 151.247 1056.16 150.88 1055.88 150.56C1055.6 150.227 1055.23 150 1054.76 149.88V154.2C1055.65 154.413 1056.38 154.64 1056.94 154.88C1057.5 155.107 1057.97 155.473 1058.36 155.98C1058.75 156.473 1058.94 157.16 1058.94 158.04ZM1051.58 151.84C1051.58 152.387 1051.74 152.813 1052.06 153.12C1052.39 153.427 1052.86 153.673 1053.46 153.86V149.82C1052.89 149.887 1052.43 150.093 1052.08 150.44C1051.75 150.787 1051.58 151.253 1051.58 151.84ZM1054.76 160.24C1055.35 160.147 1055.81 159.913 1056.14 159.54C1056.47 159.153 1056.64 158.693 1056.64 158.16C1056.64 157.627 1056.47 157.213 1056.14 156.92C1055.82 156.613 1055.36 156.367 1054.76 156.18V160.24Z" fill="#898989"/>
<g clip-path="url(#clip2_0_1245)">
<path d="M1182.69 128.963C1182.3 115.682 1171.37 105 1158 105C1144.63 105 1133.7 115.682 1133.31 128.963L1131.53 130.74V142.79L1133.29 144.554V152.765C1133.29 157.565 1137.2 161.471 1142 161.471H1144.19C1144.91 163.525 1146.88 165 1149.18 165H1152.71C1155.01 165 1156.97 163.522 1157.7 161.466C1157.8 161.468 1157.9 161.471 1158 161.471C1166.52 161.471 1173.65 155.398 1175.29 147.353H1179.91L1184.47 142.79V130.74L1182.69 128.963ZM1158 108.529C1168.47 108.529 1177.2 116.174 1178.88 126.176H1175.29C1173.65 118.131 1166.52 112.059 1158 112.059C1149.48 112.059 1142.35 118.131 1140.71 126.176H1137.12C1138.8 116.174 1147.53 108.529 1158 108.529ZM1171.67 126.176C1165.97 126.159 1161.94 126.507 1158.61 121.651L1157 119.293L1155.62 121.791C1153.6 125.431 1150.87 126.176 1147.41 126.176H1144.33C1145.9 120.094 1151.43 115.588 1158 115.588C1164.57 115.588 1170.1 120.094 1171.67 126.176ZM1140.35 143.824H1137.55L1135.06 141.328V132.202L1137.55 129.706H1140.35V143.824ZM1136.82 152.765V147.353H1140.7C1141.37 150.644 1142.96 153.665 1145.31 156.092C1144.82 156.619 1144.43 157.247 1144.19 157.941H1142C1139.15 157.941 1136.82 155.619 1136.82 152.765ZM1152.71 161.471H1149.18C1148.2 161.471 1147.41 160.679 1147.41 159.706C1147.41 158.733 1148.2 157.941 1149.18 157.941H1152.71C1153.68 157.941 1154.47 158.733 1154.47 159.706C1154.47 160.679 1153.68 161.471 1152.71 161.471ZM1172.12 143.824C1172.12 151.608 1165.78 157.941 1158 157.941C1157.9 157.941 1157.8 157.939 1157.69 157.937C1156.97 155.885 1155 154.412 1152.71 154.412C1149.08 154.42 1149.14 154.394 1148.69 154.435C1145.62 151.75 1143.88 147.925 1143.88 143.824V129.706H1147.41C1150.53 129.706 1154.34 129.191 1157.28 125.608C1161.17 129.679 1165.91 129.706 1170.18 129.706H1172.12V143.824ZM1180.94 141.328L1178.45 143.824H1175.65V129.706H1178.45L1180.94 132.202V141.328Z" fill="#242424"/>
</g>
<path d="M1200.43 124.05C1202.03 122.717 1203.3 121.608 1204.25 120.725C1205.2 119.825 1205.99 118.892 1206.63 117.925C1207.26 116.958 1207.58 116.008 1207.58 115.075C1207.58 114.225 1207.38 113.558 1206.98 113.075C1206.58 112.592 1205.96 112.35 1205.13 112.35C1204.29 112.35 1203.65 112.633 1203.2 113.2C1202.75 113.75 1202.52 114.508 1202.5 115.475H1199.1C1199.17 113.475 1199.76 111.958 1200.88 110.925C1202.01 109.892 1203.44 109.375 1205.18 109.375C1207.08 109.375 1208.53 109.883 1209.55 110.9C1210.57 111.9 1211.08 113.225 1211.08 114.875C1211.08 116.175 1210.73 117.417 1210.03 118.6C1209.33 119.783 1208.53 120.817 1207.63 121.7C1206.73 122.567 1205.55 123.617 1204.1 124.85H1211.48V127.75H1199.13V125.15L1200.43 124.05ZM1213.53 124.45V121.7L1221.71 110H1225.78V121.4H1227.98V124.45H1225.78V128H1222.28V124.45H1213.53ZM1222.51 113.75L1217.38 121.4H1222.51V113.75ZM1245.94 104.325L1239.19 132.525H1235.77L1242.52 104.325H1245.94ZM1265.88 112.425L1259.23 128H1255.68L1262.38 112.825H1253.83V109.825H1265.88V112.425ZM1280.36 128.175C1279.14 128.175 1278.04 127.967 1277.06 127.55C1276.09 127.133 1275.33 126.533 1274.76 125.75C1274.19 124.967 1273.9 124.042 1273.88 122.975H1277.63C1277.68 123.692 1277.93 124.258 1278.38 124.675C1278.85 125.092 1279.48 125.3 1280.28 125.3C1281.1 125.3 1281.74 125.108 1282.21 124.725C1282.68 124.325 1282.91 123.808 1282.91 123.175C1282.91 122.658 1282.75 122.233 1282.43 121.9C1282.12 121.567 1281.72 121.308 1281.23 121.125C1280.77 120.925 1280.12 120.708 1279.28 120.475C1278.15 120.142 1277.23 119.817 1276.51 119.5C1275.81 119.167 1275.2 118.675 1274.68 118.025C1274.18 117.358 1273.93 116.475 1273.93 115.375C1273.93 114.342 1274.19 113.442 1274.71 112.675C1275.23 111.908 1275.95 111.325 1276.88 110.925C1277.82 110.508 1278.88 110.3 1280.08 110.3C1281.88 110.3 1283.34 110.742 1284.46 111.625C1285.59 112.492 1286.22 113.708 1286.33 115.275H1282.48C1282.45 114.675 1282.19 114.183 1281.71 113.8C1281.24 113.4 1280.62 113.2 1279.83 113.2C1279.15 113.2 1278.6 113.375 1278.18 113.725C1277.78 114.075 1277.58 114.583 1277.58 115.25C1277.58 115.717 1277.73 116.108 1278.03 116.425C1278.35 116.725 1278.73 116.975 1279.18 117.175C1279.65 117.358 1280.3 117.575 1281.13 117.825C1282.27 118.158 1283.19 118.492 1283.91 118.825C1284.63 119.158 1285.24 119.658 1285.76 120.325C1286.28 120.992 1286.53 121.867 1286.53 122.95C1286.53 123.883 1286.29 124.75 1285.81 125.55C1285.33 126.35 1284.62 126.992 1283.68 127.475C1282.75 127.942 1281.64 128.175 1280.36 128.175ZM1302.64 114.15V128H1299.12V126.25C1298.67 126.85 1298.08 127.325 1297.34 127.675C1296.63 128.008 1295.84 128.175 1294.99 128.175C1293.91 128.175 1292.95 127.95 1292.12 127.5C1291.29 127.033 1290.63 126.358 1290.14 125.475C1289.68 124.575 1289.44 123.508 1289.44 122.275V114.15H1292.94V121.775C1292.94 122.875 1293.22 123.725 1293.77 124.325C1294.32 124.908 1295.07 125.2 1296.02 125.2C1296.99 125.2 1297.74 124.908 1298.29 124.325C1298.84 123.725 1299.12 122.875 1299.12 121.775V114.15H1302.64ZM1309.6 116.15C1310.05 115.517 1310.66 114.992 1311.45 114.575C1312.25 114.142 1313.16 113.925 1314.17 113.925C1315.36 113.925 1316.42 114.217 1317.37 114.8C1318.34 115.383 1319.1 116.217 1319.65 117.3C1320.21 118.367 1320.5 119.608 1320.5 121.025C1320.5 122.442 1320.21 123.7 1319.65 124.8C1319.1 125.883 1318.34 126.725 1317.37 127.325C1316.42 127.925 1315.36 128.225 1314.17 128.225C1313.16 128.225 1312.26 128.017 1311.47 127.6C1310.71 127.183 1310.08 126.658 1309.6 126.025V134.6H1306.1V114.15H1309.6V116.15ZM1316.92 121.025C1316.92 120.192 1316.75 119.475 1316.4 118.875C1316.06 118.258 1315.61 117.792 1315.05 117.475C1314.5 117.158 1313.9 117 1313.25 117C1312.61 117 1312.01 117.167 1311.45 117.5C1310.9 117.817 1310.45 118.283 1310.1 118.9C1309.76 119.517 1309.6 120.242 1309.6 121.075C1309.6 121.908 1309.76 122.633 1310.1 123.25C1310.45 123.867 1310.9 124.342 1311.45 124.675C1312.01 124.992 1312.61 125.15 1313.25 125.15C1313.9 125.15 1314.5 124.983 1315.05 124.65C1315.61 124.317 1316.06 123.842 1316.4 123.225C1316.75 122.608 1316.92 121.875 1316.92 121.025ZM1326.54 116.15C1326.99 115.517 1327.61 114.992 1328.39 114.575C1329.19 114.142 1330.1 113.925 1331.12 113.925C1332.3 113.925 1333.37 114.217 1334.32 114.8C1335.28 115.383 1336.04 116.217 1336.59 117.3C1337.16 118.367 1337.44 119.608 1337.44 121.025C1337.44 122.442 1337.16 123.7 1336.59 124.8C1336.04 125.883 1335.28 126.725 1334.32 127.325C1333.37 127.925 1332.3 128.225 1331.12 128.225C1330.1 128.225 1329.2 128.017 1328.42 127.6C1327.65 127.183 1327.02 126.658 1326.54 126.025V134.6H1323.04V114.15H1326.54V116.15ZM1333.87 121.025C1333.87 120.192 1333.69 119.475 1333.34 118.875C1333.01 118.258 1332.56 117.792 1331.99 117.475C1331.44 117.158 1330.84 117 1330.19 117C1329.56 117 1328.96 117.167 1328.39 117.5C1327.84 117.817 1327.39 118.283 1327.04 118.9C1326.71 119.517 1326.54 120.242 1326.54 121.075C1326.54 121.908 1326.71 122.633 1327.04 123.25C1327.39 123.867 1327.84 124.342 1328.39 124.675C1328.96 124.992 1329.56 125.15 1330.19 125.15C1330.84 125.15 1331.44 124.983 1331.99 124.65C1332.56 124.317 1333.01 123.842 1333.34 123.225C1333.69 122.608 1333.87 121.875 1333.87 121.025ZM1346.13 128.225C1344.8 128.225 1343.6 127.933 1342.53 127.35C1341.47 126.75 1340.63 125.908 1340.01 124.825C1339.41 123.742 1339.11 122.492 1339.11 121.075C1339.11 119.658 1339.42 118.408 1340.03 117.325C1340.67 116.242 1341.53 115.408 1342.61 114.825C1343.69 114.225 1344.9 113.925 1346.23 113.925C1347.57 113.925 1348.78 114.225 1349.86 114.825C1350.94 115.408 1351.79 116.242 1352.41 117.325C1353.04 118.408 1353.36 119.658 1353.36 121.075C1353.36 122.492 1353.03 123.742 1352.38 124.825C1351.75 125.908 1350.88 126.75 1349.78 127.35C1348.7 127.933 1347.48 128.225 1346.13 128.225ZM1346.13 125.175C1346.77 125.175 1347.36 125.025 1347.91 124.725C1348.48 124.408 1348.93 123.942 1349.26 123.325C1349.59 122.708 1349.76 121.958 1349.76 121.075C1349.76 119.758 1349.41 118.75 1348.71 118.05C1348.03 117.333 1347.18 116.975 1346.18 116.975C1345.18 116.975 1344.34 117.333 1343.66 118.05C1342.99 118.75 1342.66 119.758 1342.66 121.075C1342.66 122.392 1342.98 123.408 1343.63 124.125C1344.3 124.825 1345.13 125.175 1346.13 125.175ZM1359.43 116.3C1359.88 115.567 1360.46 114.992 1361.18 114.575C1361.91 114.158 1362.74 113.95 1363.68 113.95V117.625H1362.75C1361.65 117.625 1360.82 117.883 1360.25 118.4C1359.7 118.917 1359.43 119.817 1359.43 121.1V128H1355.93V114.15H1359.43V116.3ZM1370.11 117.025V123.725C1370.11 124.192 1370.22 124.533 1370.43 124.75C1370.67 124.95 1371.05 125.05 1371.58 125.05H1373.21V128H1371.01C1368.06 128 1366.58 126.567 1366.58 123.7V117.025H1364.93V114.15H1366.58V110.725H1370.11V114.15H1373.21V117.025H1370.11Z" fill="#242424"/>
<path d="M1204.04 148.1C1205.52 148.1 1206.81 148.387 1207.92 148.96C1209.04 149.52 1209.9 150.333 1210.5 151.4C1211.11 152.453 1211.42 153.687 1211.42 155.1C1211.42 156.513 1211.11 157.74 1210.5 158.78C1209.9 159.82 1209.04 160.62 1207.92 161.18C1206.81 161.727 1205.52 162 1204.04 162H1199.5V148.1H1204.04ZM1204.04 160.14C1205.67 160.14 1206.91 159.7 1207.78 158.82C1208.65 157.94 1209.08 156.7 1209.08 155.1C1209.08 153.487 1208.65 152.227 1207.78 151.32C1206.91 150.413 1205.67 149.96 1204.04 149.96H1201.78V160.14H1204.04ZM1223.78 156.22C1223.78 156.633 1223.75 157.007 1223.7 157.34H1215.28C1215.35 158.22 1215.67 158.927 1216.26 159.46C1216.85 159.993 1217.57 160.26 1218.42 160.26C1219.65 160.26 1220.51 159.747 1221.02 158.72H1223.48C1223.15 159.733 1222.54 160.567 1221.66 161.22C1220.79 161.86 1219.71 162.18 1218.42 162.18C1217.37 162.18 1216.42 161.947 1215.58 161.48C1214.75 161 1214.1 160.333 1213.62 159.48C1213.15 158.613 1212.92 157.613 1212.92 156.48C1212.92 155.347 1213.15 154.353 1213.6 153.5C1214.07 152.633 1214.71 151.967 1215.54 151.5C1216.38 151.033 1217.34 150.8 1218.42 150.8C1219.46 150.8 1220.39 151.027 1221.2 151.48C1222.01 151.933 1222.65 152.573 1223.1 153.4C1223.55 154.213 1223.78 155.153 1223.78 156.22ZM1221.4 155.5C1221.39 154.66 1221.09 153.987 1220.5 153.48C1219.91 152.973 1219.19 152.72 1218.32 152.72C1217.53 152.72 1216.86 152.973 1216.3 153.48C1215.74 153.973 1215.41 154.647 1215.3 155.5H1221.4ZM1225.26 156.44C1225.26 155.333 1225.49 154.353 1225.94 153.5C1226.41 152.647 1227.04 151.987 1227.82 151.52C1228.62 151.04 1229.51 150.8 1230.48 150.8C1231.2 150.8 1231.91 150.96 1232.6 151.28C1233.31 151.587 1233.87 152 1234.28 152.52V147.2H1236.58V162H1234.28V160.34C1233.91 160.873 1233.39 161.313 1232.72 161.66C1232.07 162.007 1231.32 162.18 1230.46 162.18C1229.5 162.18 1228.62 161.94 1227.82 161.46C1227.04 160.967 1226.41 160.287 1225.94 159.42C1225.49 158.54 1225.26 157.547 1225.26 156.44ZM1234.28 156.48C1234.28 155.72 1234.12 155.06 1233.8 154.5C1233.5 153.94 1233.09 153.513 1232.58 153.22C1232.08 152.927 1231.53 152.78 1230.94 152.78C1230.36 152.78 1229.81 152.927 1229.3 153.22C1228.8 153.5 1228.38 153.92 1228.06 154.48C1227.76 155.027 1227.6 155.68 1227.6 156.44C1227.6 157.2 1227.76 157.867 1228.06 158.44C1228.38 159.013 1228.8 159.453 1229.3 159.76C1229.82 160.053 1230.37 160.2 1230.94 160.2C1231.53 160.2 1232.08 160.053 1232.58 159.76C1233.09 159.467 1233.5 159.04 1233.8 158.48C1234.12 157.907 1234.28 157.24 1234.28 156.48ZM1240.74 149.52C1240.32 149.52 1239.98 149.38 1239.7 149.1C1239.42 148.82 1239.28 148.473 1239.28 148.06C1239.28 147.647 1239.42 147.3 1239.7 147.02C1239.98 146.74 1240.32 146.6 1240.74 146.6C1241.14 146.6 1241.48 146.74 1241.76 147.02C1242.04 147.3 1242.18 147.647 1242.18 148.06C1242.18 148.473 1242.04 148.82 1241.76 149.1C1241.48 149.38 1241.14 149.52 1240.74 149.52ZM1241.86 150.98V162H1239.58V150.98H1241.86ZM1244.09 156.48C1244.09 155.347 1244.32 154.353 1244.77 153.5C1245.24 152.633 1245.88 151.967 1246.69 151.5C1247.5 151.033 1248.44 150.8 1249.49 150.8C1250.82 150.8 1251.92 151.12 1252.79 151.76C1253.67 152.387 1254.26 153.287 1254.57 154.46H1252.11C1251.91 153.913 1251.59 153.487 1251.15 153.18C1250.71 152.873 1250.16 152.72 1249.49 152.72C1248.56 152.72 1247.81 153.053 1247.25 153.72C1246.7 154.373 1246.43 155.293 1246.43 156.48C1246.43 157.667 1246.7 158.593 1247.25 159.26C1247.81 159.927 1248.56 160.26 1249.49 160.26C1250.81 160.26 1251.68 159.68 1252.11 158.52H1254.57C1254.25 159.64 1253.65 160.533 1252.77 161.2C1251.89 161.853 1250.8 162.18 1249.49 162.18C1248.44 162.18 1247.5 161.947 1246.69 161.48C1245.88 161 1245.24 160.333 1244.77 159.48C1244.32 158.613 1244.09 157.613 1244.09 156.48ZM1256.08 156.44C1256.08 155.333 1256.31 154.353 1256.76 153.5C1257.23 152.647 1257.86 151.987 1258.64 151.52C1259.44 151.04 1260.32 150.8 1261.28 150.8C1262.15 150.8 1262.9 150.973 1263.54 151.32C1264.2 151.653 1264.72 152.073 1265.1 152.58V150.98H1267.4V162H1265.1V160.36C1264.72 160.88 1264.19 161.313 1263.52 161.66C1262.86 162.007 1262.1 162.18 1261.24 162.18C1260.3 162.18 1259.43 161.94 1258.64 161.46C1257.86 160.967 1257.23 160.287 1256.76 159.42C1256.31 158.54 1256.08 157.547 1256.08 156.44ZM1265.1 156.48C1265.1 155.72 1264.94 155.06 1264.62 154.5C1264.32 153.94 1263.91 153.513 1263.4 153.22C1262.9 152.927 1262.35 152.78 1261.76 152.78C1261.18 152.78 1260.63 152.927 1260.12 153.22C1259.62 153.5 1259.2 153.92 1258.88 154.48C1258.58 155.027 1258.42 155.68 1258.42 156.44C1258.42 157.2 1258.58 157.867 1258.88 158.44C1259.2 159.013 1259.62 159.453 1260.12 159.76C1260.64 160.053 1261.19 160.2 1261.76 160.2C1262.35 160.2 1262.9 160.053 1263.4 159.76C1263.91 159.467 1264.32 159.04 1264.62 158.48C1264.94 157.907 1265.1 157.24 1265.1 156.48ZM1273.06 152.84V158.94C1273.06 159.353 1273.15 159.653 1273.34 159.84C1273.54 160.013 1273.87 160.1 1274.34 160.1H1275.74V162H1273.94C1272.91 162 1272.13 161.76 1271.58 161.28C1271.03 160.8 1270.76 160.02 1270.76 158.94V152.84H1269.46V150.98H1270.76V148.24H1273.06V150.98H1275.74V152.84H1273.06ZM1287.94 156.22C1287.94 156.633 1287.91 157.007 1287.86 157.34H1279.44C1279.51 158.22 1279.83 158.927 1280.42 159.46C1281.01 159.993 1281.73 160.26 1282.58 160.26C1283.81 160.26 1284.67 159.747 1285.18 158.72H1287.64C1287.31 159.733 1286.7 160.567 1285.82 161.22C1284.95 161.86 1283.87 162.18 1282.58 162.18C1281.53 162.18 1280.58 161.947 1279.74 161.48C1278.91 161 1278.26 160.333 1277.78 159.48C1277.31 158.613 1277.08 157.613 1277.08 156.48C1277.08 155.347 1277.31 154.353 1277.76 153.5C1278.23 152.633 1278.87 151.967 1279.7 151.5C1280.54 151.033 1281.5 150.8 1282.58 150.8C1283.62 150.8 1284.55 151.027 1285.36 151.48C1286.17 151.933 1286.81 152.573 1287.26 153.4C1287.71 154.213 1287.94 155.153 1287.94 156.22ZM1285.56 155.5C1285.55 154.66 1285.25 153.987 1284.66 153.48C1284.07 152.973 1283.35 152.72 1282.48 152.72C1281.69 152.72 1281.02 152.973 1280.46 153.48C1279.9 153.973 1279.57 154.647 1279.46 155.5H1285.56ZM1289.42 156.44C1289.42 155.333 1289.65 154.353 1290.1 153.5C1290.57 152.647 1291.2 151.987 1291.98 151.52C1292.78 151.04 1293.67 150.8 1294.64 150.8C1295.36 150.8 1296.07 150.96 1296.76 151.28C1297.47 151.587 1298.03 152 1298.44 152.52V147.2H1300.74V162H1298.44V160.34C1298.07 160.873 1297.55 161.313 1296.88 161.66C1296.23 162.007 1295.48 162.18 1294.62 162.18C1293.66 162.18 1292.78 161.94 1291.98 161.46C1291.2 160.967 1290.57 160.287 1290.1 159.42C1289.65 158.54 1289.42 157.547 1289.42 156.44ZM1298.44 156.48C1298.44 155.72 1298.28 155.06 1297.96 154.5C1297.66 153.94 1297.25 153.513 1296.74 153.22C1296.24 152.927 1295.69 152.78 1295.1 152.78C1294.52 152.78 1293.97 152.927 1293.46 153.22C1292.96 153.5 1292.54 153.92 1292.22 154.48C1291.92 155.027 1291.76 155.68 1291.76 156.44C1291.76 157.2 1291.92 157.867 1292.22 158.44C1292.54 159.013 1292.96 159.453 1293.46 159.76C1293.98 160.053 1294.53 160.2 1295.1 160.2C1295.69 160.2 1296.24 160.053 1296.74 159.76C1297.25 159.467 1297.66 159.04 1297.96 158.48C1298.28 157.907 1298.44 157.24 1298.44 156.48ZM1312.93 162.18C1312.07 162.18 1311.29 162.027 1310.59 161.72C1309.91 161.4 1309.37 160.973 1308.97 160.44C1308.57 159.893 1308.36 159.287 1308.33 158.62H1310.69C1310.73 159.087 1310.95 159.48 1311.35 159.8C1311.77 160.107 1312.28 160.26 1312.89 160.26C1313.53 160.26 1314.03 160.14 1314.37 159.9C1314.73 159.647 1314.91 159.327 1314.91 158.94C1314.91 158.527 1314.71 158.22 1314.31 158.02C1313.93 157.82 1313.31 157.6 1312.45 157.36C1311.63 157.133 1310.95 156.913 1310.43 156.7C1309.91 156.487 1309.46 156.16 1309.07 155.72C1308.7 155.28 1308.51 154.7 1308.51 153.98C1308.51 153.393 1308.69 152.86 1309.03 152.38C1309.38 151.887 1309.87 151.5 1310.51 151.22C1311.17 150.94 1311.91 150.8 1312.75 150.8C1314.01 150.8 1315.01 151.12 1315.77 151.76C1316.55 152.387 1316.96 153.247 1317.01 154.34H1314.73C1314.69 153.847 1314.49 153.453 1314.13 153.16C1313.77 152.867 1313.29 152.72 1312.67 152.72C1312.07 152.72 1311.61 152.833 1311.29 153.06C1310.97 153.287 1310.81 153.587 1310.81 153.96C1310.81 154.253 1310.92 154.5 1311.13 154.7C1311.35 154.9 1311.61 155.06 1311.91 155.18C1312.22 155.287 1312.67 155.427 1313.27 155.6C1314.07 155.813 1314.73 156.033 1315.23 156.26C1315.75 156.473 1316.2 156.793 1316.57 157.22C1316.95 157.647 1317.14 158.213 1317.15 158.92C1317.15 159.547 1316.98 160.107 1316.63 160.6C1316.29 161.093 1315.79 161.48 1315.15 161.76C1314.53 162.04 1313.79 162.18 1312.93 162.18ZM1329.6 150.98V162H1327.32V160.7C1326.96 161.153 1326.48 161.513 1325.9 161.78C1325.32 162.033 1324.71 162.16 1324.06 162.16C1323.19 162.16 1322.41 161.98 1321.72 161.62C1321.04 161.26 1320.5 160.727 1320.1 160.02C1319.71 159.313 1319.52 158.46 1319.52 157.46V150.98H1321.78V157.12C1321.78 158.107 1322.02 158.867 1322.52 159.4C1323.01 159.92 1323.68 160.18 1324.54 160.18C1325.39 160.18 1326.06 159.92 1326.56 159.4C1327.06 158.867 1327.32 158.107 1327.32 157.12V150.98H1329.6ZM1334.89 152.6C1335.27 152.093 1335.8 151.667 1336.47 151.32C1337.13 150.973 1337.89 150.8 1338.73 150.8C1339.69 150.8 1340.56 151.04 1341.35 151.52C1342.15 151.987 1342.77 152.647 1343.23 153.5C1343.68 154.353 1343.91 155.333 1343.91 156.44C1343.91 157.547 1343.68 158.54 1343.23 159.42C1342.77 160.287 1342.15 160.967 1341.35 161.46C1340.56 161.94 1339.69 162.18 1338.73 162.18C1337.89 162.18 1337.14 162.013 1336.49 161.68C1335.83 161.333 1335.3 160.907 1334.89 160.4V167.24H1332.61V150.98H1334.89V152.6ZM1341.59 156.44C1341.59 155.68 1341.43 155.027 1341.11 154.48C1340.8 153.92 1340.39 153.5 1339.87 153.22C1339.36 152.927 1338.81 152.78 1338.23 152.78C1337.65 152.78 1337.11 152.927 1336.59 153.22C1336.08 153.513 1335.67 153.94 1335.35 154.5C1335.04 155.06 1334.89 155.72 1334.89 156.48C1334.89 157.24 1335.04 157.907 1335.35 158.48C1335.67 159.04 1336.08 159.467 1336.59 159.76C1337.11 160.053 1337.65 160.2 1338.23 160.2C1338.81 160.2 1339.36 160.053 1339.87 159.76C1340.39 159.453 1340.8 159.013 1341.11 158.44C1341.43 157.867 1341.59 157.2 1341.59 156.44ZM1348.44 152.6C1348.83 152.093 1349.35 151.667 1350.02 151.32C1350.69 150.973 1351.44 150.8 1352.28 150.8C1353.24 150.8 1354.11 151.04 1354.9 151.52C1355.7 151.987 1356.33 152.647 1356.78 153.5C1357.23 154.353 1357.46 155.333 1357.46 156.44C1357.46 157.547 1357.23 158.54 1356.78 159.42C1356.33 160.287 1355.7 160.967 1354.9 161.46C1354.11 161.94 1353.24 162.18 1352.28 162.18C1351.44 162.18 1350.69 162.013 1350.04 161.68C1349.39 161.333 1348.85 160.907 1348.44 160.4V167.24H1346.16V150.98H1348.44V152.6ZM1355.14 156.44C1355.14 155.68 1354.98 155.027 1354.66 154.48C1354.35 153.92 1353.94 153.5 1353.42 153.22C1352.91 152.927 1352.37 152.78 1351.78 152.78C1351.21 152.78 1350.66 152.927 1350.14 153.22C1349.63 153.513 1349.22 153.94 1348.9 154.5C1348.59 155.06 1348.44 155.72 1348.44 156.48C1348.44 157.24 1348.59 157.907 1348.9 158.48C1349.22 159.04 1349.63 159.467 1350.14 159.76C1350.66 160.053 1351.21 160.2 1351.78 160.2C1352.37 160.2 1352.91 160.053 1353.42 159.76C1353.94 159.453 1354.35 159.013 1354.66 158.44C1354.98 157.867 1355.14 157.2 1355.14 156.44ZM1364.49 162.18C1363.45 162.18 1362.51 161.947 1361.67 161.48C1360.83 161 1360.17 160.333 1359.69 159.48C1359.21 158.613 1358.97 157.613 1358.97 156.48C1358.97 155.36 1359.22 154.367 1359.71 153.5C1360.21 152.633 1360.88 151.967 1361.73 151.5C1362.59 151.033 1363.54 150.8 1364.59 150.8C1365.65 150.8 1366.6 151.033 1367.45 151.5C1368.31 151.967 1368.98 152.633 1369.47 153.5C1369.97 154.367 1370.21 155.36 1370.21 156.48C1370.21 157.6 1369.96 158.593 1369.45 159.46C1368.95 160.327 1368.25 161 1367.37 161.48C1366.51 161.947 1365.55 162.18 1364.49 162.18ZM1364.49 160.2C1365.08 160.2 1365.63 160.06 1366.13 159.78C1366.65 159.5 1367.07 159.08 1367.39 158.52C1367.71 157.96 1367.87 157.28 1367.87 156.48C1367.87 155.68 1367.72 155.007 1367.41 154.46C1367.11 153.9 1366.7 153.48 1366.19 153.2C1365.69 152.92 1365.14 152.78 1364.55 152.78C1363.97 152.78 1363.42 152.92 1362.91 153.2C1362.42 153.48 1362.03 153.9 1361.73 154.46C1361.44 155.007 1361.29 155.68 1361.29 156.48C1361.29 157.667 1361.59 158.587 1362.19 159.24C1362.81 159.88 1363.57 160.2 1364.49 160.2ZM1374.75 152.58C1375.08 152.02 1375.52 151.587 1376.07 151.28C1376.63 150.96 1377.29 150.8 1378.05 150.8V153.16H1377.47C1376.58 153.16 1375.9 153.387 1375.43 153.84C1374.98 154.293 1374.75 155.08 1374.75 156.2V162H1372.47V150.98H1374.75V152.58ZM1382.8 152.84V158.94C1382.8 159.353 1382.9 159.653 1383.08 159.84C1383.28 160.013 1383.62 160.1 1384.08 160.1H1385.48V162H1383.68C1382.66 162 1381.87 161.76 1381.32 161.28C1380.78 160.8 1380.5 160.02 1380.5 158.94V152.84H1379.2V150.98H1380.5V148.24H1382.8V150.98H1385.48V152.84H1382.8Z" fill="#898989"/>
<defs>
<clipPath id="clip0_0_1245">
<rect width="60" height="60" fill="white" transform="translate(445.333 105)"/>
</clipPath>
<clipPath id="clip1_0_1245">
<rect width="60" height="60" fill="white" transform="translate(828.667 105)"/>
</clipPath>
<clipPath id="clip2_0_1245">
<rect width="60" height="60" fill="white" transform="translate(1128 105)"/>
</clipPath>
</defs>
</svg>
